<?xml version="1.0" encoding="UTF-8" standalone="no"?>
<svg
   version="1.1"
   viewBox="3000 -7800 800 1250"
   preserveAspectRatio="xMidYMid"
   id="svg1173"
   sodipodi:docname="map_of_finland.svg"
   inkscape:version="1.1 (c4e8f9e, 2021-05-24)"
   xmlns:inkscape="http://www.inkscape.org/namespaces/inkscape"
   xmlns:sodipodi="http://sodipodi.sourceforge.net/DTD/sodipodi-0.dtd"
   xmlns:xlink="http://www.w3.org/1999/xlink"
   xmlns="http://www.w3.org/2000/svg"
   xmlns:svg="http://www.w3.org/2000/svg">
  <defs
     id="defs1177" />
  <sodipodi:namedview
     id="namedview1175"
     pagecolor="#ffffff"
     bordercolor="#666666"
     borderopacity="1.0"
     inkscape:pageshadow="2"
     inkscape:pageopacity="0.0"
     inkscape:pagecheckerboard="0"
     showgrid="false"
     inkscape:zoom="0.54031409"
     inkscape:cx="315.5572"
     inkscape:cy="619.08435"
     inkscape:window-width="1920"
     inkscape:window-height="1027"
     inkscape:window-x="1440"
     inkscape:window-y="25"
     inkscape:window-maximized="1"
     inkscape:current-layer="layer1" />
  <style
     id="style610">
circle:hover { cursor: pointer; }
</style>
  <g
     inkscape:groupmode="layer"
     id="layer1"
     inkscape:label="Layer 1"
     style="display:inline">
    <g
       id="g2897"
       mask="none"
       transform="translate(0,-3.4375e-5)"
       clip-path="none">
      <path
         style="fill:#ffffff;fill-opacity:0.983806;stroke:none"
         d="m 3000,-6600 h 800 v -1200 h -800 v 1200"
         id="path612" />
      <path
         style="fill:none;stroke:#808080"
         d="m 3000,-6700 h 750"
         id="path766" />
      <path
         style="fill:none;stroke:#808080"
         d="m 3000,-6800 h 750"
         id="path768" />
      <path
         style="fill:none;stroke:#808080"
         d="m 3000,-6900 h 750"
         id="path770" />
      <path
         style="fill:none;stroke:#808080"
         d="m 3000,-7000 h 750"
         id="path772" />
      <path
         style="fill:none;stroke:#808080"
         d="m 3000,-7100 h 750"
         id="path774" />
      <path
         style="fill:none;stroke:#808080"
         d="m 3000,-7200 h 750"
         id="path776" />
      <path
         style="fill:none;stroke:#808080"
         d="m 3000,-7300 h 750"
         id="path778" />
      <path
         style="fill:none;stroke:#808080"
         d="m 3000,-7400 h 750"
         id="path780" />
      <path
         style="fill:none;stroke:#808080"
         d="m 3000,-7500 h 750"
         id="path782" />
      <path
         style="fill:none;stroke:#808080"
         d="m 3000,-7600 h 750"
         id="path784" />
      <path
         style="fill:none;stroke:#808080"
         d="m 3000,-7700 h 750"
         id="path786" />
      <path
         style="fill:none;stroke:#808080"
         d="M 3100,-6630 V -7800"
         id="path788" />
      <path
         style="fill:none;stroke:#808080"
         d="M 3200,-6630 V -7800"
         id="path790" />
      <path
         style="fill:none;stroke:#808080"
         d="M 3300,-6630 V -7800"
         id="path792" />
      <path
         style="fill:none;stroke:#808080"
         d="M 3400,-6630 V -7800"
         id="path794" />
      <path
         style="fill:none;stroke:#808080"
         d="M 3500,-6630 V -7800"
         id="path796" />
      <path
         style="fill:none;stroke:#808080"
         d="M 3600,-6630 V -7800"
         id="path798" />
      <path
         style="fill:none;stroke:#808080"
         d="M 3700,-6630 V -7800"
         id="path800" />
      <path
         style="fill:#ffffff;fill-opacity:1;stroke:#ffffff"
         d="m 3061,-6701 2,-5 2,-7 v 0 l 2,-8 h 1 v 0 l 6,-26 h 1 v 0 l 18,-6 h 2 l 3,-1 22,-1 24,-17 v 0 l 20,-23 1,-1 v 0 l 7,-34 5,-22 -1,-30 v 0 -9 l -4,-42 -9,-42 v 0 -1 l -3,-20 -4,-29 14,-17 16,-15 12,-3 30,-14 h 5 v 0 h 3 l 11,-2 13,-16 4,-9 1,-2 1,-1 2,-3 v -1 h 1 v -1 l 3,-4 2,-2 3,-2 1,-1 4,-2 2,-1 1,-1 19,-8 2,-15 4,-9 7,-7 32,-16 1,-7 v 0 l 1,-1 7,-24 v 0 0 l 5,-14 4,-24 v 0 0 0 0 -24 0 -2 l 2,-22 -1,-6 1,-4 v 0 l 1,-2 v -1 -1 -1 h -1 v -1 -1 l -1,-1 v -1 -2 0 -1 0 l -1,-1 v 0 l -1,-1 -1,-1 v -1 -1 -1 -1 -1 -1 0 -1 l -1,-1 v -1 l -1,-1 v -2 0 l -1,-1 -1,-2 v -1 -1 -2 -1 -1 -1 -1 l -1,-1 -1,-1 h -1 v 0 l -2,-1 -1,-1 -1,-2 -2,-2 -1,-2 v -1 l -1,-3 v -2 l -1,-2 1,-2 v 0 -1 -1 0 l 1,-1 v -3 -2 -1 l -1,-2 v 0 -1 -1 -1 l 1,-1 h 1 l 1,-1 v 0 l 1,-1 v -1 l 1,-1 2,-2 v -2 l 1,-1 h 1 l 1,-1 1,-1 v -1 l 1,-4 -1,-2 v -1 0 -2 l 1,-1 1,-1 v -1 -2 -2 -2 -1 -1 -1 0 0 h 1 v -1 l 1,-1 v -1 l 1,1 1,-1 1,-1 v -2 -1 l -1,-2 -1,-3 v -1 l -1,-1 v -1 l -2,-2 v -2 0 -1 -1 h -1 v -1 0 l -1,-2 v -1 l -1,-1 v 0 l -1,-1 v -1 l -1,-1 v -1 l -1,-1 v -1 -1 l -1,-4 -2,-4 -2,-3 v -1 h -1 l 1,-2 1,-1 v -2 -1 l -1,-1 v -2 0 l 1,-1 v 0 -1 l 1,-1 h 1 v 0 l 1,-1 h 1 l 2,-1 1,1 v -1 -1 l 1,-1 v -1 h 1 v -1 -1 0 l -1,-2 -1,-1 v -2 -1 l 1,-1 v -1 l 1,-2 v 0 l -1,-1 -1,-1 h -1 -1 l -1,-1 h -2 l -1,-1 -1,-1 -1,1 -1,1 v 0 h -1 l -2,-2 h -1 v -1 -2 l -1,-1 v -1 l 1,-1 v 0 l 1,-1 1,-1 v -1 -1 -1 -1 h 1 l 1,-1 1,-1 v -1 -1 l 1,-1 v 0 -1 l -1,-1 v -1 l -1,-1 v -1 -3 -3 -1 -1 -3 -2 l 1,-2 -1,-1 v -2 l 1,-3 1,-2 1,-2 v -1 h 2 l 1,-1 1,-1 1,-1 v 0 -1 l 1,-1 -1,-2 v -1 h -1 l -2,-1 -1,-4 -1,-1 -2,-1 -1,-1 -1,-1 -1,-2 -1,-3 v -1 0 l -1,-2 v -2 0 l -1,-1 v -1 0 0 h -1 -2 l -1,1 -2,1 v -10 0 -3 l -2,-1 -1,-2 v -4 l -3,-2 -1,-1 -1,-1 -1,-1 v 0 l -2,-1 v -1 l -1,-1 v -2 h -1 -2 -1 v -1 h -1 -1 v -1 -1 l -1,-1 v -1 h -1 -1 l -1,1 -2,-2 -2,-2 -2,-1 h -1 -1 l -1,2 -1,-2 1,-2 h -1 -2 -1 -1 -2 -1 -1 v 0 -1 h -1 v 0 h -1 l -2,-1 v -1 0 -3 l -1,-1 v 0 l -1,-3 h -1 l -1,-1 v -2 l -2,-1 h -2 -1 -2 l -1,-1 v 0 -2 -1 0 -2 l -1,-2 h -1 l -1,-1 v 0 l -1,-1 -1,-1 h -2 v 0 h -1 l -1,-1 -2,-2 v -4 -1 -1 l -1,-1 v 0 h -2 l -1,-1 v -1 l -1,-1 v 0 -2 0 l -1,-1 -1,-2 -1,-1 -1,-2 v 0 l -1,-1 -1,-1 -1,-1 -1,-1 -1,-1 h -1 v 0 l -1,-1 h -2 v 0 0 l -1,-1 v -1 l -1,-1 v -1 -1 h 1 1 l 1,-1 v -1 l -1,-1 v -2 l -1,-1 -1,-1 v -1 -1 l -1,-1 -1,-1 -2,-1 h -2 -1 l -1,-1 -1,-1 v 0 l -1,-1 7,-6 13,10 3,-6 -2,-2 -1,-7 v -3 -2 l 1,-1 3,-2 3,-3 h 1 l 3,-2 14,5 6,14 2,3 v 0 l 1,2 1,2 8,15 1,6 5,9 v 13 l 6,-2 11,6 h 10 l 4,8 12,-7 9,-1 2,-4 2,-3 1,-5 4,-2 2,1 h 2 l 2,1 1,2 v 1 l 4,1 v 4 0 l 2,1 1,1 1,1 1,1 h 1 l 7,2 6,3 h 1 l 5,5 1,1 1,2 v 3 l 1,2 v 1 l 2,1 v -3 0 -1 -1 l 1,-1 v -1 h 2 1 v 0 h 1 l 2,-2 2,-1 v -1 -1 -1 -1 -1 -2 l 1,-1 v 0 l -1,-1 1,-1 -1,-1 v -1 l 1,-2 v 0 -1 -1 0 -1 h 1 v 0 l 1,-1 1,-1 h 1 v -1 l 1,-1 v -1 h 1 v -1 h 1 v -1 0 l 2,-1 1,-1 v 0 h 1 v 0 l 1,-1 v 0 0 h 1 v -1 h 1 v 0 h 1 v 0 l 1,1 v 0 0 l 1,1 h 1 v 0 h 1 v 0 0 l 1,-1 v 0 h 1 v -1 0 l 1,-2 v 0 -1 l 1,-1 v -1 -1 l 2,-4 1,-2 1,-1 -2,-10 v -2 l 1,-1 v -1 l -1,-3 v -1 -1 l -1,-2 1,-1 v -2 0 -1 l -1,-1 1,-1 1,-1 v -1 0 -1 0 -1 -1 0 -1 -2 l 1,-1 1,-1 v -1 0 l 1,-1 v -1 l 1,-1 v -1 l -1,-1 v -1 -1 0 -1 -2 l 1,-1 v -1 l 1,-1 v -1 -1 -2 l 1,-1 -1,-1 v -2 -1 h 1 l 1,-1 1,-1 1,-2 1,-2 -1,-2 v -2 l -1,-1 v 0 h -1 v -2 0 l 1,-1 1,-1 v -1 l 1,-1 1,-1 2,-1 2,-1 2,-1 v 0 -1 l 1,-2 3,-3 v 0 -1 l 1,-1 1,-1 2,-2 1,-1 1,-2 v -2 -1 0 l 1,-1 1,-2 v -1 l 8,-3 1,1 1,1 v 0 0 l 2,-1 3,-1 v 1 1 1 0 l 1,1 1,-1 v 0 h 1 1 1 v 1 l 1,1 v 1 h 1 1 l 1,-1 2,-1 1,-1 1,-1 h 1 l 2,-1 v -1 -2 0 l 1,-1 h 1 1 l 1,-1 v -1 l 2,-1 3,-1 v 0 l 1,-1 1,-3 v 0 l 1,-1 1,-1 h 1 l 3,1 v 0 h 1 l 5,-2 h 1 l 1,-1 h 1 l 1,1 v 0 2 2 1 l 1,2 1,3 1,1 2,4 3,3 2,2 4,3 1,3 2,3 v 1 l 28,13 v 2 l 7,15 v 2 l 1,1 1,2 v 1 l -1,2 -3,6 -1,2 -7,9 -3,4 -4,6 v 0 2 2 2 2 2 l -1,1 1,3 v 1 l 1,2 3,2 -19,17 2,3 h 1 l 3,-1 h 4 l 5,2 -3,13 v 2 l -5,12 -2,4 -3,6 1,5 v 0 l 8,34 23,9 6,3 3,6 1,1 -1,1 2,3 1,1 1,2 2,4 2,4 1,1 3,6 v 0 l 1,2 12,9 2,2 1,1 v 1 2 l -1,4 v 1 l -1,3 v 2 2 2 1 l -7,10 -3,4 -2,4 -1,1 v 0 0 1 h 1 l -1,1 v 0 l -1,1 v 0 0 h -1 v 0 1 0 1 h -1 l -1,1 v 0 0 2 l -17,28 v 1 l -1,2 -1,2 -1,2 -1,2 v 2 3 l 1,2 v 2 l 1,3 1,1 v 2 l 2,2 1,2 1,2 3,6 1,1 1,2 1,2 2,2 h -1 l 1,1 1,1 v 1 l 1,1 v 1 0 l 1,1 1,1 1,2 1,1 v 2 l 7,15 1,3 2,7 v 2 l 1,2 1,1 8,12 2,3 3,10 1,2 v 0 l 1,2 v 0 1 l 1,2 v 0 l 1,4 1,3 2,9 1,6 1,4 v 4 4 l -1,-1 h -1 l -2,-1 h -1 -1 l -12,7 3,3 1,2 3,2 -3,5 -1,2 -1,1 v 1 0 1 l -1,1 1,2 v 2 2 3 2 l 1,2 v 2 l -3,3 -3,4 -1,2 2,2 1,1 h 2 2 2 l 4,1 1,2 -3,6 3,4 v 0 l -1,1 -1,1 h -5 l -5,4 v 2 2 2 h -1 v 1 2 l 1,3 v 3 l 1,4 1,1 1,2 1,3 v 1 l 3,4 h 4 l 2,-1 h 3 3 2 l 2,1 1,1 -2,3 -1,2 1,2 2,2 3,4 v 1 l -1,2 -2,1 -2,2 -1,1 v 4 4 l 1,2 1,1 -1,1 1,1 1,2 v 2 4 l 1,1 1,2 1,2 3,1 4,1 1,1 1,1 3,2 1,2 5,2 2,4 -2,3 2,4 2,3 v 2 5 2 l -1,2 -1,3 -1,1 -1,1 -1,2 v 1 l -1,1 -1,1 -2,4 -1,1 v 1 1 l -3,8 -2,1 -4,2 v 0 0 l -1,1 v 0 l -2,1 -2,1 h -1 v 1 0 1 h 1 v 1 0 1 0 l 2,2 v 0 l 1,1 v 0 l 1,1 1,1 v 0 l 6,6 2,2 v 2 l 1,1 3,2 h 1 v 0 l 1,1 1,1 1,1 v 1 l 2,1 v 1 l 2,3 1,2 h 1 v 0 h 1 v 0 l 3,1 1,1 h 1 l 1,1 h 2 l 5,2 1,1 1,1 v 0 l 1,2 h 1 v 0 l 1,1 h 2 l 1,1 v 0 1 l 1,2 h 1 v 1 h 1 l 1,1 h 1 1 l 1,1 1,1 h 1 l 1,2 1,1 v 0 l 2,1 1,1 1,1 v 0 l 1,1 -1,1 1,1 1,1 v 1 1 2 1 1 0 l 1,2 2,2 v 1 h 2 l 1,1 v 0 l 1,2 v 0 h 1 l 1,1 v 0 l 2,1 v 1 0 1 1 h 1 v 0 l 1,1 h 1 l 1,3 v 0 l 1,1 1,2 v 1 0 l 1,2 v 1 1 h -1 v 1 1 l -3,5 v 1 0 l -1,2 v 1 1 1 0 0 h -1 v 1 0 1 h -1 v 1 1 l -1,4 v 2 1 1 0 2 l -1,1 v 0 1 h -1 v 3 h -1 v 1 1 l -2,6 v 0 h -1 v 2 1 l -1,1 v 1 h -1 v 1 h -1 v 4 l -1,1 -1,1 v 0 l -1,1 -1,1 v 0 l -1,1 -1,1 -1,1 v 1 l -1,2 -1,1 v 0 l -2,3 v 1 h 1 v 0 l -1,1 v 1 1 h -1 l -1,-1 v 0 l -1,1 -1,1 -1,1 v 0 1 0 h -1 l -1,1 v 1 1 0 l -1,1 v 0 l -1,1 -2,3 h -2 -1 v 1 l -1,1 -1,2 h 1 v 1 l -1,1 v 2 l -1,1 -22,33 -1,1 -1,1 v 0 l -1,1 v 1 l -1,1 v 1 1 2 h -1 v 1 l -2,2 v 0 l -2,2 -1,1 v 0 l -1,1 -1,1 v 0 l -1,2 v 0 l -1,1 v 1 0 h -1 v 0 l -1,1 v 1 1 l -1,1 v 0 l -1,1 v 0 1 l -1,2 h -1 v 3 0 0 l -1,1 v 1 h -1 l -1,2 h -1 v 1 l -1,1 h 1 l -1,1 v 1 h -1 v 1 h -1 l -4,1 h -1 v 1 0 2 1 h -1 l -2,3 v 1 l -1,1 -1,1 -1,1 v 0 l -1,1 v 0 0 0 1 l -2,2 v 1 0 1 l -1,1 v 0 l -2,3 v 1 l -1,1 v 1 l -1,1 v 0 h -1 l -2,3 -3,2 -1,1 v 0 l -2,2 h -1 v 0 h -1 l -1,1 v 1 0 h -1 v 1 l -1,2 -1,1 h -1 -1 -1 l -1,1 -1,1 h -1 v 1 1 l -1,1 -1,2 -1,1 v 0 l -1,1 -1,1 -1,2 v 1 2 l -1,1 v 2 0 l -1,2 v 1 l -1,1 h -1 v -1 h -1 -1 l -1,1 h -1 -1 -1 l -1,2 -1,1 v 0 h -1 v 0 l -1,1 v 1 l -1,1 v 0 h -1 l -33,40 -1,2 1,3 -2,6 -3,2 2,4 -15,19 -9,3 h -4 -21 v 0 0 h -4 l -2,1 -7,3 -7,1 -11,12 -6,1 -6,2 -3,4 -22,5 h -3 -6 l -17,-2 -13,2 -8,3 -17,8 -9,2 -7,1 -49,12 -28,1 -11,2 v 0 0 0 h -2 l -14,10 h -49 -3 l -2,-1 h -1 l -14,-3 v 0 0 l -23,-6 -22,6 h -3 l -3,-1 -15,-16 -3,-1 -13,-23 -27,-48 h -61 v 101 h 800 v -1200 h -800 v 1099"
         id="path802"
         mask="none" />
      <path
         style="fill:none;stroke:#d3d3d3"
         d="m 3327,-6652 -2,-1 v 0 0 l 2,-3 3,-2 h 4 v 1 1 l -1,1 -3,2 -3,1 m -30,9 -1,-1 1,-1 1,-2 h 2 l 2,-1 h 2 l 1,1 -2,2 h -1 l -3,2 h -2 m 207,-53 h -1 -1 l -1,-3 v -1 -2 l 1,-2 1,-1 h 1 v 1 l 1,7 -1,1 m 6,12 h -2 v -1 -1 -2 h 2 1 l 2,1 v 1 0 l -1,1 h -1 l -1,1 m -93,-538 -2,-1 -2,-1 v -1 0 l 1,-1 h 1 l 2,1 1,2 -1,1 m -22,15 -1,-2 h -1 l -1,-1 -1,1 h -3 l -1,-1 -1,-4 -1,-3 v -1 l 1,-1 1,-2 2,-1 4,-1 4,-1 h 2 l 2,2 1,1 3,1 3,-1 1,1 v 2 l -1,1 -1,1 h -2 -1 l -2,-1 -2,-2 h -1 l -2,2 v 1 l 2,4 v 2 1 l -1,1 -1,1 h -2 m 12,530 -2,-1 v -1 0 l 1,-1 2,-1 h 2 l 1,1 v 1 l -1,1 -3,1 m -211,32 h -1 l -1,-1 v 0 -1 l 1,-1 3,-2 h 2 l 1,2 -1,2 -2,1 h -2 m 17,-373 -2,-1 -2,-2 h -2 v 0 l -1,-1 -2,-4 -1,-7 v -1 l 1,-1 v 0 l 3,2 1,-2 2,-1 h 1 l 1,2 v 2 l -1,1 -1,2 v 0 l 1,1 h 2 2 l 1,-2 h 1 2 v 1 l 2,3 v 3 l -1,1 v 1 h -2 l -2,-1 -1,1 -2,3 m 27,-28 h -1 v -1 -1 l 1,-2 h 1 1 l 1,1 v 0 2 l -1,1 h -2 m -33,6 v 0 l 4,-5 h 1 l 1,2 -2,3 -1,2 h -2 l -1,-1 v -1 m 10,4 h -3 l -1,-3 1,-1 2,-2 h 3 v 1 l 1,2 -2,2 -1,1 m 30,1 h -1 v 0 -1 l 1,-2 2,-2 4,-1 h 1 l 1,2 -1,1 -1,1 h -3 l -2,1 -1,1 m -15,7 h 1 v -2 l 1,-1 2,1 v 1 0 l -3,4 h -3 l 2,-3 m -26,32 h -2 l -1,-1 -1,-1 v -1 -2 l 1,-2 h 1 1 l 1,1 h 1 v 4 l -1,2 m -2,143 h 1 v 0 h 1 l 1,2 2,2 v 1 2 1 h -2 -3 l -1,-1 -1,-2 2,-1 v -4 m 231,174 1,-1 1,-1 h 3 1 l 1,2 v 1 l -1,1 -1,1 h -1 -3 -1 v -1 -1 -1 0 m -17,-3 h 2 l 1,1 v 4 l -1,1 -2,1 -1,-1 v -3 l 1,-3 v 0 m -219,-8 v 0 h -1 v -3 -4 l 2,-2 h 1 l 3,5 v 2 l -1,1 -1,1 h -3 m 10,35 h -2 l -1,-1 v -3 0 l 1,-3 h 1 1 l 1,1 v 4 l -1,2 m 13,-27 -1,-1 v -2 l 1,-1 h 1 l 3,-2 h 2 l 1,1 v 1 l -2,3 -1,1 h -4 m -14,3 -1,-1 1,-7 2,-1 1,-1 h 3 l 3,1 h 1 l 1,1 v 1 l -1,1 -3,1 -2,1 -2,3 -1,1 v 0 h -2 m 280,-13 -2,-1 v -1 0 l 2,-2 2,1 v 1 1 l -1,1 h -1 m -14,-6 1,-1 1,-1 1,-2 h 3 l 1,1 v 2 l -2,1 -3,2 h -1 l -1,-2 v 3 m 1,1 -1,2 h -2 l -2,-2 -1,-1 -1,-1 1,-1 h 1 l 3,1 1,1 m -17,7 -2,-2 1,-2 v 0 h 2 l 1,1 1,2 -1,1 h -2 m -35,1 1,-2 h 1 v 2 l 2,3 1,1 v 2 l -1,3 -1,1 h -1 l -1,-1 v -4 l -1,-3 v -2 m 29,3 -2,-1 v -1 -1 h 2 l 2,-1 v 1 l 1,2 -1,1 h -2 m -242,-18 -2,-2 -1,-1 v -2 -1 h 4 l 1,1 1,2 v 2 1 h -3 m -9,-9 v -3 l 2,-2 2,-1 1,-1 1,3 -2,3 -1,1 h -3 m 41,55 h -1 l -1,-2 1,-2 1,-1 1,-1 h 1 l 2,1 v 1 3 l -1,1 h -1 -2 m 27,-10 v -1 l 2,-2 h 1 v 0 l 2,2 v 3 0 l -3,2 -2,-1 v -3 m -32,-19 -2,-1 v -2 -1 -2 0 l -3,-1 -2,-3 1,-5 2,-1 4,1 h 4 1 l 3,-1 2,-1 h 2 2 v 1 l 1,1 v 1 1 l -3,2 -2,3 -2,3 -2,1 -2,2 -1,2 h -3 m 13,7 v -2 l -2,-1 v -1 -1 l 1,-1 1,-2 1,-2 v 2 h 2 l 3,1 8,-1 5,-1 h 1 1 v 2 l -1,3 v 3 2 2 l -1,2 -2,3 -1,2 v 1 2 l -2,2 h -1 -3 l -4,-2 h -2 l -3,2 h -3 -2 l -1,-1 -2,-3 v -4 l 1,-1 1,-2 4,-2 v -1 l 1,-1 m -9,0 h -2 l -2,-2 2,-3 2,-2 2,-1 h 2 l 1,1 v 1 1 l -2,3 -2,1 -1,1 m 32,7 h -1 l -1,-1 1,-1 2,-2 h 1 l 1,1 v 2 0 l -1,1 h -2 m -50,-6 h -4 -4 l -1,-1 v -1 0 l 1,-2 2,-1 3,1 2,1 2,1 v 1 1 h -1 m -25,-1 -2,-1 v -1 -1 l 1,-3 4,-3 2,-2 h 2 l 1,2 -1,3 -1,4 -2,1 -1,1 h -3 m 59,23 h -3 l -2,-1 -1,-2 -1,-1 1,-2 h 2 l 3,1 1,2 1,1 v 1 1 h -1 m -14,10 -1,-1 1,-1 v -1 l 2,-2 2,-1 h 3 l 1,1 v 1 1 l -3,2 -2,1 h -3 m -56,-354 v -1 -1 -2 l 2,-1 h 1 l 1,1 v 2 l -1,2 h -1 -2 m 28,286 v 0 -3 -2 h 2 1 l 1,1 1,2 1,1 v 0 0 l 1,1 4,6 v 3 l -1,5 -1,1 -1,1 h -1 l -2,-1 v -1 l -1,-1 2,-3 v -1 l -1,-1 -3,-3 -2,-5 m -25,26 -4,-1 -2,-1 -1,-1 1,-3 1,-2 h 2 l 2,2 h 1 4 1 v 1 3 l -1,1 -1,1 h -3 m -1,-19 h -2 l -1,-1 -1,-1 1,-3 h 2 l 1,1 1,2 -1,2 m 3,-3 v 0 l -1,-3 -1,-2 1,-1 h 1 l 1,-1 1,1 1,3 -1,2 -1,1 h -1 m 0,16 -2,-1 -1,-1 1,-3 3,-2 h 1 l 1,1 v 3 l -2,2 h -1 v 1 m -11,-19 -1,-1 v -1 -1 l 1,-1 v -1 l 2,-1 1,2 v 2 l -1,2 h -2 m 7,-21 -1,-1 -2,-3 v -2 l 1,-1 1,-1 h 1 1 1 v 0 2 l 1,5 -1,1 h -2 m 8,13 -2,-2 -2,-4 v -2 -2 l 2,-2 2,1 3,5 v 1 2 l -1,2 v 1 h -2 m -8,-2 -2,-1 v -1 l -1,-5 -1,-2 1,-1 v -1 l 3,4 2,3 v 3 h -1 l -1,1 m -9,0 -1,4 -3,-1 v -1 l -1,-3 v -5 -1 l 1,-1 h 1 l 1,2 2,3 v 3 0 m -14,16 h -2 l -1,-1 v -1 -3 h 2 l 1,1 1,1 v 3 h -1 m -6,-4 v 2 l -1,2 h -1 l -2,1 -1,-1 v -1 l 1,-2 2,-2 h 1 l 1,1 m -2,15 -1,-1 v -1 l -1,-3 1,-2 2,-1 2,2 v 1 l 1,2 -1,1 -2,2 h -1 m 11,-20 -1,-1 -1,-3 v -1 -2 l 1,-2 1,-1 2,1 1,3 v 3 l -1,2 -2,1 m 7,8 h -2 l -1,-2 -1,-2 v -2 -2 l 3,-2 3,3 -2,7 m -24,16 -1,-1 -1,-4 v 0 l 2,-2 2,1 1,2 v 3 l -1,1 h -2 m 9,33 -3,-2 v -1 -1 l 1,-1 1,-1 2,-1 h 2 l 2,1 h 1 v 2 l -1,1 v 1 h -2 l -1,1 v 1 h -2 m -16,-22 h -3 l -2,-1 v -1 l -1,-1 1,-1 h 2 2 l 1,2 v 2 m 2,-11 2,-1 v 1 l 2,1 1,2 v 1 l 1,2 v 2 l -1,1 -2,1 -1,-1 -2,-5 -1,-1 1,-2 v -1 m -11,-18 h -3 l -1,-1 v -2 l 1,-1 h 1 l 3,1 1,1 h 1 l 1,1 v 1 h -1 -3 m -1,15 -1,-1 v -1 l 1,-2 v -1 -1 l -1,-1 h -1 l 1,-2 1,-2 1,-1 h 2 l 1,1 v 1 l -1,2 v 1 l 1,1 v 1 l -1,2 -2,3 h -1 m 0,24 -4,-1 h -1 -1 v -1 l 1,-1 1,-1 3,-2 2,-2 h 2 2 2 l 2,1 1,1 v 2 l -1,1 -3,1 -4,1 -2,1 m -19,-47 h 1 1 l 1,1 2,1 1,2 1,1 2,1 1,2 1,1 v 1 l 1,2 2,2 -1,4 v 2 l -2,2 h -3 l -2,1 h -1 l -2,-2 -2,-2 h -1 v 0 l -1,-1 -1,1 -1,2 2,2 1,2 v 0 1 l -3,6 v 1 h 2 2 l 2,-1 h 1 l 2,1 h 1 l 1,1 1,3 -1,2 v 1 l 2,2 v 3 l -2,1 -1,1 h -1 v -1 l -1,-2 v 0 h -2 l -1,-2 -1,-2 -3,-3 h -2 v 0 l -4,1 -1,-1 v -5 0 h -1 l -1,-1 h -2 l -3,-2 -1,-2 v -1 0 -1 l -2,-3 v 0 l -1,-1 h -1 -1 l -2,-1 -1,1 -1,3 h -2 l -1,-2 v -2 -2 l 1,-2 v -1 l -2,-1 -1,-1 1,-1 1,-1 2,-1 3,-2 2,-1 v 0 0 l 3,1 h 3 v -1 l 2,-2 h 1 2 v 1 2 4 h 2 l 1,-2 v -1 -4 0 l -1,-1 -1,-1 h -2 l -1,-1 v -1 0 l 2,-3 2,-2 2,-1 h 1 l 2,1 4,4 m 11,36 -1,-1 -1,-3 v -2 -1 l 1,-1 2,-2 h 1 v 1 l 1,2 -1,3 v 3 l -1,1 h -1 m 484,-108 h -1 l -1,1 v 1 0 h -1 v 1 l -1,2 -1,1 h -1 -1 -1 l -1,1 -1,1 h -1 v 1 1 l -1,1 -1,2 -1,1 v 0 l -1,1 -1,1 -1,2 v 1 2 l -1,1 v 2 0 l -1,2 v 1 l -1,1 h -1 v -1 h -1 -1 l -1,1 h -1 -1 -1 l -1,2 -1,1 v 0 h -1 v 0 l -1,1 v 1 l -1,1 v 0 l -1,1 h -1 v 1 l -1,1 -1,1 h -1 v 1 0 l -1,2 v 1 h -1 l -1,1 v 0 1 l -1,1 h -1 v 1 1 h -1 -1 -1 v 0 l -1,1 v 2 l -1,2 v 0 h -1 l -1,1 v 0 l -1,1 v 1 l -1,1 -2,2 -1,1 -1,1 v 1 l -6,6 -1,1 v 1 l -1,1 v 1 1 1 h -1 l -1,1 h -1 l -1,-1 -1,-1 v 0 h -1 -1 v 1 2 l 1,1 v 1 1 h -1 v 0 h -1 v 1 h 1 1 l 1,1 v 1 l -1,1 v 0 l -1,-1 -1,1 v 0 0 h -1 l -1,-1 h -1 l -1,1 v 0 h -1 v -1 -1 h 1 1 v -1 -1 h -1 -1 v 1 h -1 v 1 h -1 v 1 l 1,1 1,1 v 1 0 0 h -1 l -1,-1 -1,-1 -1,-1 h -1 l -1,-1 v -1 h -1 v 0 h -1 l 1,1 v 1 h -1 v 1 1 h 1 l 1,1 v 1 h -1 -1 v -1 h -1 -2 v -1 -1 l -1,-2 v 0 -1 h -1 v 0 1 h -1 -1 -1 v -1 h -1 v 0 h -1 -1 v 0 h -1 -1 -1 v 0 0 -1 -1 -1 0 0 h 1 l 1,1 h 1 1 v 0 l -1,-1 -1,-1 h -1 l -1,-1 v 0 h -1 -1 v 0 1 2 l -1,1 v 0 h -1 v -1 0 h -1 v 0 0 -1 0 l -1,-1 v 0 l -1,1 -1,1 v 1 h -1 -1 v -1 l 1,-1 -1,-1 v 0 l -1,1 v 1 1 0 l -1,1 v 1 0 1 0 h -1 -1 -1 v 1 1 1 h 1 v 0 1 1 h -1 v 0 l -1,-2 -1,-1 v -2 0 l -1,-1 v 0 l -1,1 h 1 v 1 l -1,1 v 0 1 h -1 v 0 h -1 v 0 1 h -1 v 0 h -1 v 0 -1 0 -1 0 0 0 -1 0 0 0 h -1 v 0 0 0 0 h -1 v 1 h -1 v 0 0 1 1 0 1 h -1 v 1 0 l -1,1 v 0 0 l -1,1 v 0 0 l -1,-1 v 0 -1 0 l -1,-1 v 0 -1 h -1 -1 v 0 h -1 v 0 h -1 v 0 l -1,1 v 0 0 1 0 0 1 0 0 h -1 v -1 0 h -1 v -1 h -1 v -1 h -1 v -1 0 l -1,-1 v 0 -1 0 0 -1 0 -1 l -1,1 v 9 0 0 0 l -1,-1 v 0 0 0 h -1 v 0 0 h -1 v 0 1 0 l 1,1 v 0 0 1 0 0 0 0 h -1 v 0 0 -1 0 h -1 v 0 0 0 h -1 v 1 0 0 h -1 v 1 0 2 l -1,-1 v 0 h -1 v -1 0 0 -1 h -1 v -1 0 0 -1 0 -1 0 0 -1 0 0 h -1 v 0 l -1,-1 v 0 -1 h -1 v 1 l 1,2 v 1 l 1,2 v 0 1 0 h -1 -1 v 0 -1 0 h -1 v -1 h -1 -1 v 0 0 1 0 0 l 1,1 v 0 l 1,1 v 0 1 h -1 v 0 1 h -1 v -1 h -1 v 0 -1 0 -1 -1 0 h -1 l -1,-1 v 0 h -1 v -1 0 l -1,-1 v 0 0 -1 l -1,1 v 0 0 1 0 0 0 h -1 v 0 0 l -1,-1 v -1 0 -1 h -1 v -1 0 -1 h -1 v -1 0 l -1,-1 v 0 -1 h -1 v -1 0 h -1 v 0 h -1 v 0 1 0 0 1 h 1 v 1 h 1 v 1 0 1 1 h 1 v 0 h 1 v 0 0 l 1,1 v 1 h 1 v 1 0 1 h -1 v 0 0 l -1,1 h 1 v 1 0 h 1 l 1,1 v 1 h 1 v 1 0 l 1,1 v 1 l 1,1 v 0 0 1 0 l -1,1 v 0 h -1 v 0 l -1,1 v 0 0 h -1 v 0 -1 0 -1 0 -1 0 h -1 v -1 h -1 v 0 0 -1 0 -1 0 0 -1 0 0 l -1,-1 v 1 0 h -1 v 1 0 0 h -1 v 0 l -1,-1 v 0 l -1,2 v 5 1 0 h -1 v 0 0 1 0 0 1 0 1 h 1 v 0 h 1 v 1 0 0 0 l -1,1 v 0 0 h -1 v 0 0 h -1 v 0 0 -1 h -1 l 1,-1 v 0 -1 0 l -1,-1 v 0 0 h -1 v 0 0 h -1 v 0 h -1 v 0 l -1,-1 v 0 -1 0 0 l -1,-1 v 0 0 -1 h -1 v 0 0 1 0 0 0 l 1,1 v 0 0 1 0 l 1,1 v 0 1 h 1 v 0 0 h 1 v 0 h 1 v 0 1 0 h -1 v 0 0 l -1,1 v 0 h -1 v 1 0 0 1 0 h -1 v 0 l -1,-1 v 0 h -1 v -1 0 h -1 v -1 0 -1 0 h -1 v 0 h -1 l -1,-1 v -1 -1 -1 h -1 v -1 0 -1 h 1 v 0 h 1 l 1,1 1,-1 v 0 h 1 v -1 0 l -1,-1 v 0 0 l -1,-1 v 0 -1 h 1 v 0 0 -1 0 l -1,-1 v 0 l -1,1 v 2 l -2,-1 1,-1 h -1 v 1 0 1 0 h -1 v 1 1 0 l -1,1 v 0 1 0 h -1 v 0 h -1 v 0 -1 0 -1 0 0 h -1 v 0 0 l -1,-1 v 1 0 1 1 0 1 1 0 1 0 1 0 h -1 v 2 0 1 1 0 l -1,1 -2,1 -1,1 -1,-1 -1,-1 v 0 l 1,-1 h 2 l 1,-1 v 0 0 h -1 -1 -1 v 0 h -1 l -1,-1 v 0 h -1 v 0 0 h -1 v 0 h -1 v 0 l -1,1 v 0 h -1 -1 v 0 h -1 l -1,-1 v 0 h -1 -1 v 0 0 l -1,1 v 0 h 1 v 1 0 0 1 0 h -1 v 0 0 0 l -1,1 v 0 l 1,1 v 0 0 1 1 0 h -2 l -1,1 h -1 l -1,-1 2,-1 v -1 l -4,2 h -3 v -1 h 1 v -1 h -1 -1 -1 v 1 1 1 h -2 v 0 1 h 2 v 1 h -1 v 1 1 h -1 -1 v -1 0 h -1 v 0 0 0 l -1,-1 1,-1 v -2 h -1 v 0 h -1 v 0 -1 -1 0 h -1 v 0 l -1,1 v 1 0 1 0 1 0 0 h -1 v 1 l -2,1 v 1 h -1 -1 v 0 0 h -1 -1 v 1 l -1,1 v 0 1 h -1 v -1 0 -1 h -1 v -1 h -1 v -1 -1 h -1 -1 v -1 h -1 v 0 0 1 h 1 v 1 l 1,1 v 0 l -1,1 v 0 l -1,1 h -1 v 1 1 h 1 1 v -1 h 1 v 0 h 1 l -1,1 -1,1 v 0 1 1 h -1 l -1,1 v 2 l -1,1 -1,1 v 0 1 h -1 v 1 1 l -1,1 h -1 v 0 l -1,1 h -1 l -1,1 -1,1 h -1 v -1 l 1,-1 v -1 l 1,-1 1,-1 v -1 h 1 v -1 0 -1 h -1 l -1,1 v 0 h -1 v 1 h -1 v 0 h -1 v 0 l -1,1 h -1 v 0 -1 -1 h 1 v -1 -1 l 1,-1 v 0 -1 -1 h 1 l -1,-1 v 0 -1 h -1 l -1,1 v 0 0 h -1 v 0 0 h -1 v 1 h 1 l -1,1 -1,1 h -1 v 1 0 l -1,-1 h -2 l -1,-1 h -1 v 1 l 1,1 1,1 h -1 -1 -1 v -1 h -1 l -2,2 h -1 -1 l -1,-1 h -1 -1 -2 l -1,1 h -1 l -2,-1 h -1 -2 v 0 h -1 l -1,1 h 1 l 1,1 h 1 l -1,1 -1,1 v 1 h -1 v 1 h -2 v 0 l -1,1 h -1 -1 v -1 l -1,-1 h -1 -1 v 0 l -1,1 h -2 -1 v 0 l 1,2 2,-1 h 2 v 2 l -1,1 -4,-1 h -2 -1 -5 l -1,1 h -1 -1 l -1,-1 v 0 -1 l 1,-1 h 1 1 v 1 h 1 1 v 0 -1 h -1 v -1 l 2,-1 h 2 l 1,-1 v 0 -1 h -1 v 1 h -1 -1 -1 v 0 l -1,1 h -1 l -1,1 v -1 0 -1 l 1,-1 v 0 h 1 l 1,-1 v 0 l 1,-1 v 0 -1 0 -1 0 l 1,-1 h 1 v -1 0 -1 -1 -1 h 1 v -1 h 1 v -1 -1 l -1,1 h -1 l -1,1 v 1 1 h -1 l -1,1 h -1 v 1 0 l 1,1 -1,1 v 1 1 0 l -2,2 -1,1 -1,1 v 1 l -1,1 -1,1 -1,1 v 0 l -1,1 h -1 l -1,1 h -1 -1 v 0 l -1,1 v 1 h -1 l 1,1 v 1 1 0 1 0 1 h -1 l -1,1 -1,1 h -1 l -1,-1 h -1 v 0 h -1 -1 -1 -1 v 1 l -1,1 h -1 l -1,-1 h -1 -2 -1 l -1,1 v 0 h -1 v -1 0 -1 l 1,-1 h 1 l 2,-1 h 1 l 1,-1 1,-1 2,-1 h 1 1 2 l 1,-1 h 1 l 1,-1 1,-1 v -1 l 1,-1 v 0 l 1,-1 1,-1 h 1 l 1,-1 1,-2 1,-1 v -2 -2 0 0 0 l 1,-1 v -2 0 l -1,1 v 1 0 l -1,1 v 1 l -1,1 v 2 h -1 l -1,1 v 1 l -1,2 -2,2 -1,1 h -1 v 0 h -1 v -1 l 4,-4 v -1 0 h -1 v 0 l -1,1 v 1 l -1,1 v 0 l -1,-1 1,-1 -1,-1 v 1 1 h -1 l -1,1 v -1 0 -1 -1 l 1,-1 v 0 l 1,-1 v -1 l 1,-1 h 1 1 l 1,-1 h 1 v 0 -1 h -1 -1 -1 l -1,1 h -1 v 1 l -2,1 v 0 h -1 -1 l -1,1 v 1 h 1 v 0 2 l -1,2 v 0 3 h -1 v 0 h -1 v 0 -2 l -2,-2 v 0 0 h -1 l 1,1 v 1 1 h -1 -2 -3 l -1,-1 v -1 l 1,-1 -3,-5 v -1 -1 -1 l 1,-1 v 1 h 1 v 1 l -1,1 1,1 v 0 1 h 1 v 1 l 1,-1 v 0 l 1,-1 v 0 h 2 l 1,1 v 0 h 1 1 l 1,-1 v 0 l 1,-1 -1,-1 v 0 -1 -1 -1 -1 h 1 1 v 0 h 1 v -1 h -1 l -1,-1 h -1 v -1 l -1,-1 h 1 l 1,-1 v -1 0 l 1,1 h 1 l -2,-4 2,-1 -1,-1 -2,1 1,-2 h -1 l -2,-1 -1,-1 -1,1 h -3 v 0 -2 h 1 v -4 l 2,-3 -1,-2 -2,1 h -1 v -2 -1 l -1,1 h -1 l -2,2 -8,1 -3,1 h -3 v -2 l -2,-1 -1,-1 v -1 l 1,-2 1,-2 3,-3 1,-3 h 1 v -3 h -1 -2 l -1,-1 v -1 0 l 1,-1 v 0 l -1,-1 -9,2 h -1 l -5,-6 h -1 v 0 h -1 v 0 h -1 l -1,-1 v 0 -1 -1 0 0 l -1,-1 v 0 1 1 0 l -1,1 v 0 0 l -2,-1 1,-1 -1,-2 1,-2 v -2 l -4,1 v 2 0 l -1,-1 v -1 0 l -1,-1 v -1 0 l 1,-1 v -1 0 h -1 v 0 h -1 v 0 0 l -1,-1 v 0 l -1,-1 v 1 0 h -1 v 0 h -1 v 1 1 1 0 h -1 -3 1 v -1 -1 0 -2 -1 h 1 v -1 -1 -1 h -1 l -2,4 v -2 l 2,-4 h -1 v 0 l -1,1 h -1 -1 v 1 l -2,-1 h -1 v 0 0 l -1,1 1,1 v 1 1 l -1,1 v 1 l -1,1 v 1 h -1 v 1 1 h -1 -1 v 0 h -1 l 1,-1 v 0 l 1,-1 v -1 l -1,-1 v -1 l -1,-1 v 0 -1 0 l -1,-1 v 0 h -1 v -1 0 h 1 v 0 h 1 1 v 0 h 1 v 0 l -1,-1 v 0 l -1,-1 h -1 v 0 l -1,-1 v 0 l -1,1 v 0 l -1,1 h -1 v 0 l -1,-1 -1,-1 v -1 -1 0 -1 l 2,-1 v 0 l -1,-1 h -1 v -1 h -1 l -1,-1 v 0 l -1,-1 v 0 -1 h -1 v -1 0 h 1 v -1 0 -1 0 h -1 v -1 0 h 1 1 1 1 l 1,1 h 1 1 v -1 l -1,-1 v 0 -1 0 -1 h 1 v -1 h -1 l -1,-1 v 0 l -1,-1 h -1 v -1 0 l 1,-1 v -1 0 -1 0 -1 -1 0 h -1 v 0 0 h -1 v 0 -1 0 -1 0 l -1,-1 v 0 l 1,-1 v 0 h 1 l -1,-1 v 0 h -1 v 0 0 -1 0 l 1,-1 h 1 v 0 h 1 v 0 l 1,1 h 1 l 1,-1 -1,-2 -1,-2 v 0 -1 h 1 v 1 0 l 1,1 v 0 1 l 1,-1 v -1 h -1 v -1 -1 0 -2 0 l -1,-1 v -1 -1 0 l -1,-1 -1,-1 v 0 -1 -1 0 h 1 v 0 -1 -1 h -1 -1 v 0 -1 -1 0 -1 h -1 -1 v -1 -1 0 0 h 1 l 2,1 1,1 v 0 l 1,1 1,1 1,-1 v -1 -1 h -1 l -1,-1 v 0 0 -1 0 l 1,1 h 1 1 v 1 h 1 1 1 v 0 l -1,-1 v 0 l -1,-1 v -1 0 0 l 1,-1 v 0 -1 h -1 v 0 h -1 v -1 h 1 v 0 h 1 v -1 h 1 -1 v -1 l -1,-1 v 0 0 h 1 1 v 0 h 1 v 0 -1 h -1 v -1 h -1 -1 v -1 0 h 1 v 0 h 1 1 1 1 1 v 0 0 -1 h -1 v 0 -1 0 0 l 1,-1 v 0 -1 0 0 h 1 1 l 1,1 v 0 l 1,-1 h -1 l -1,-1 -1,-1 -1,-1 -1,-1 h -1 v -1 0 -1 h 1 1 v 0 0 l -1,-1 -1,-1 v 0 l 1,-1 h 1 v 0 1 h 1 l 1,-1 v -1 -1 h -1 l 1,-1 v -1 l -1,-1 v 0 -1 -1 l -1,-1 v 0 h 1 1 v -1 0 l -1,-2 h -1 l -1,-1 -1,-1 h -1 v -1 0 -1 h 1 2 l 1,1 h 1 l 1,1 v 0 h 1 v 0 l 1,-1 -1,-1 v -1 -2 h -1 v -1 h -2 l -1,-1 v 0 l 1,-1 -1,-1 h -1 -1 v 0 -1 0 h 1 1 l 1,1 h 1 v 1 h 1 2 l 1,-1 v 0 -1 -1 l -1,-1 v -1 l -1,1 h -1 l -1,1 v 0 0 l -1,-1 v -1 l 1,-1 v -1 0 -1 h -1 l -1,1 -1,-1 v 0 l 1,-1 v -1 0 -1 h 1 v 0 h 1 l 1,1 v 0 l 1,1 h 1 l 1,1 v 0 l 1,1 1,1 h 1 1 l 1,1 v 0 h 1 v -1 h -1 v 0 0 -1 l -1,-1 -1,-1 v -1 l -1,-1 v -1 l -1,-1 h 1 1 v 0 h 1 v -1 h -1 l -1,-1 h -1 l -1,-1 v 0 l -1,-1 v -1 0 -1 l -1,-1 v 0 -1 -1 l -1,-1 v -1 l -1,-1 v 0 -1 0 h 1 v 1 l 1,1 h 1 v 1 -1 0 -1 -1 0 l 1,1 1,1 v 1 0 h 1 v 0 -1 -1 h -1 l -1,-1 v -1 l -1,-1 v 0 -1 l -1,-1 v -1 l -1,1 h -1 -1 v -1 l -1,-1 v -1 0 -1 -1 0 h 1 v 1 h 1 v 1 1 0 l 1,-1 v -1 h 1 v -1 h 1 v 0 h 1 v -1 h -1 v -1 0 h -1 -1 -1 v 0 -1 0 -1 h 1 l -1,-1 v -1 -1 -1 -1 l -1,-1 v 0 -1 -1 -1 -1 0 l -1,-1 v 0 -1 h 1 l -1,-1 h -1 l -1,1 h -1 v 0 h -1 v -1 l -1,-1 v -1 0 l 1,-1 h 1 v 0 -1 0 -1 h -1 -1 l -1,1 h -1 v 0 -1 h 1 v -1 -1 l 1,-1 v -1 l 1,-2 v -1 l 1,-1 v -1 -2 -1 -1 -2 -1 -1 h 1 v 0 1 1 h 1 v 0 -1 -1 -1 -1 0 l 1,-1 v 0 l 1,-1 h 1 v 0 h 1 v 0 l 1,-1 v -1 0 -1 h -1 l -1,1 -1,-1 v 0 -1 -1 0 -1 -1 0 -1 l 1,-1 v 0 -1 -1 0 h -1 v 1 0 1 l -1,1 v 0 1 h -1 -1 l 1,-1 v -1 -1 l 1,-1 v -1 -1 0 h -1 v 1 0 l -1,-1 v -1 0 l 1,-1 v 0 l 1,-1 1,-1 v -1 -1 -1 0 h -1 v 0 l -1,1 v 1 0 l -1,-1 v -1 -1 -1 0 -1 l 1,-1 v -1 h -1 v 1 h -1 v 0 1 0 h -1 v -1 0 l -1,-1 v 0 l 1,-1 v -1 -1 0 -1 0 h -1 v 1 h -1 v 1 h -1 v 0 h -1 v 0 -1 h 1 v -1 l 1,-1 v 0 -1 0 l 1,-1 v 0 -1 h -1 v 0 1 h -1 v 0 h -1 v 0 l -1,-1 v 0 h -1 v -1 0 -1 h 1 v 0 l 1,-1 v 0 -1 -1 0 0 h -1 v 0 h -1 v -1 0 -1 h 1 v 0 h 1 1 v 1 h 1 v 0 h 1 v -1 0 l -1,-1 v 0 h -1 l 1,-1 v 0 -1 -1 l 1,-1 v 0 l 1,-1 v 0 l 1,-1 v 0 h -1 v -1 h -1 v 0 0 l -1,-1 v 0 h -1 v 0 l 1,-1 h -1 v 0 h -1 v 0 l -1,1 v 1 0 l -1,1 v -1 h -1 v -1 h 1 v -1 -1 0 -1 0 l 1,-1 v 0 -1 -1 0 0 l -1,-1 v 0 l 1,-1 v -1 h 1 v 1 0 h 1 v 0 0 l 1,-1 v -1 h 1 v 0 h 1 v -1 -1 0 -1 -1 0 h -1 l -1,-1 v -1 -1 -1 -1 0 -1 h 1 v 0 h 1 v 0 h 1 v 1 0 h 1 v -1 h 1 v -1 h 1 v -1 0 -1 -1 0 -1 h 1 v -1 -1 0 -1 h 1 v -1 0 h 1 v 0 h 1 v 1 h 1 v 1 0 l 1,1 h 1 1 l 1,-1 v -1 l 1,-1 v -1 0 l 1,-1 v -1 -1 -1 -1 l 1,-1 v 0 l 1,-1 h 1 v -1 h -1 v 0 -1 0 0 l 1,-1 h -1 v -1 -1 0 -1 0 0 h 1 v 0 0 1 h 1 v 1 0 0 -1 0 -2 h -1 v -1 h -1 l 1,-1 v 0 -1 h 1 1 v 0 l 1,-1 v 0 -1 h 1 v 1 h 1 v 1 l 1,1 v 0 0 l 1,1 1,1 h 1 1 v 0 -1 0 -1 0 0 l -1,-1 -1,-1 v 0 l -1,-1 v -1 -1 l 1,-1 v 0 l -1,-1 h -1 -1 v -1 l -1,-1 v -1 -1 -1 -1 -1 0 l 1,-1 h 1 1 v 0 0 -1 h -1 -1 -1 v -1 -1 0 -1 l 1,-1 v -1 -1 0 -1 -1 -1 h 1 v 0 h 1 v 1 1 2 l 1,2 1,1 h 2 1 l 1,-1 h 1 v 0 1 l 1,1 v 0 h 1 1 v -1 h -1 v 0 h -1 v -1 -1 0 l 1,-1 v -1 h 1 l 1,-1 h 2 -1 v 1 h 1 v 0 h 1 l 2,-1 v 0 h 1 v 1 0 l 1,1 v 2 3 0 0 1 1 1 h 1 v 1 1 1 0 h 1 1 v -1 -1 l -1,-1 v -1 0 l 1,-1 v 0 0 l 1,5 4,-1 v -5 -1 0 h 1 l 1,-1 h 1 v -1 l 2,-1 v 0 h 1 l 1,1 v 0 -1 l 1,-1 v 0 h -1 l 1,-1 v 0 -2 h 1 v 0 l 1,-1 v 0 h 1 l 1,1 v 1 h 1 v 0 h 1 v -1 -1 -1 0 0 h 1 v -1 0 -1 -1 0 l -1,-2 -1,-1 v -1 l -2,-1 v -1 -1 l -1,-1 -1,-2 -2,-2 v -1 -1 0 l 1,-1 h 1 1 1 1 v 0 l 1,1 1,2 v 0 h 1 l 1,1 v 0 0 -1 0 l -1,-1 v -1 0 l -1,-1 -2,-2 v -2 -1 -1 l 1,-1 v -1 l 1,-1 v 0 -2 h 1 v 0 l 1,1 1,1 h -1 v 0 l -1,1 v 0 1 1 h 1 v 1 l -1,1 v 1 h 1 1 v 0 1 1 1 1 h 1 l 1,-1 h 1 v 0 -1 -1 -1 -1 0 -1 l 1,-2 v 0 -1 -1 h 1 v -1 -1 h 1 v -1 l 1,-1 v 0 0 h -1 -1 l -1,1 v 0 h -1 v 0 -1 h -1 l 1,-1 h 1 1 v 0 h 1 v -2 -2 l 1,-1 1,-1 2,-1 h 1 v -1 -1 -1 l 1,-1 v -1 1 h 1 v 0 1 0 1 0 h 1 v 0 l 1,1 h 1 v 0 -1 0 -1 0 -1 0 h 1 v 0 l 1,1 v 1 h 1 v 0 1 1 1 0 0 l 1,2 v -1 -1 -1 h 1 v 1 0 l 1,1 v 1 -1 l -2,-5 2,-4 5,-3 v 0 l 5,-2 1,1 v 0 -1 -1 -1 0 -1 0 l 1,-1 v -1 -1 -1 0 -1 -1 h 1 v -1 1 h 1 v 1 0 1 h 1 v 0 l 1,-1 v 0 0 -1 h -1 v -1 l -1,-1 v 0 l -1,-1 v -1 0 h 1 v 0 0 h 1 v 1 1 h 1 v 0 h 1 -1 v -1 0 -1 h 1 v 0 h 1 v 1 h 1 1 l 4,-1 1,-2 h 1 v 1 l 1,1 h 1 v -1 h 1 v -1 0 0 l 1,-1 v 0 0 -1 0 l -1,-1 v 0 -1 0 h 1 v 0 -1 0 0 h -1 v -1 0 0 l 1,-1 v 0 l 1,-1 v 0 -1 l -1,-1 v -1 0 l -1,-1 v -1 h 1 l 1,-1 v 0 l 1,-1 v 0 -1 0 h 1 v 1 1 h 1 v 1 l 1,1 h 1 1 1 1 1 1 v 0 h 1 v 0 0 0 -1 0 0 l 1,-1 -1,-1 h -1 v -1 -1 -1 -1 -1 0 h 1 v 0 h 1 v 0 -1 -1 h -1 v 0 -1 h 1 v 0 h 1 v 0 h 1 v -1 l 1,-1 1,-1 v -2 0 l -1,-1 v -1 0 -1 0 h 1 l 1,1 1,-1 h 1 l 1,-1 h 1 v -1 h 1 v -1 l -1,-1 v -1 0 l 1,-1 v 0 -1 0 h 1 v 0 h 1 v 1 h 1 v 0 h 1 v -1 -1 -1 -1 l 1,-1 v 0 -1 l 1,-1 1,-1 v 0 l 1,-1 v -1 0 0 l 1,-1 v -1 0 -1 h 1 l 1,-1 v 0 h 1 1 1 v 0 -1 -1 0 h -1 v -1 -1 0 h 1 1 1 l 1,-1 h 1 v -1 l 1,-1 1,-1 h 1 1 v 0 l 1,-1 1,-1 h -1 -1 v -1 h -1 v -1 0 -1 h 1 1 v 0 h 1 1 1 v 0 l 1,-1 v -1 -1 -1 l 1,-1 v -1 0 -1 h -1 v -1 h 1 v -1 h 1 v -1 -1 0 -1 0 -1 -1 0 h 1 l 1,-1 v 0 h 1 v 0 h 1 v -1 l -1,-1 v 0 0 l 2,-1 h 1 v 0 l 1,-1 1,-1 h 1 v -1 -1 -1 -1 -1 -1 0 -1 -1 h -1 v 0 -1 -1 l 1,-1 h 1 v -1 h 1 v 0 h 1 v 1 1 0 0 1 h 1 v -1 0 l 1,-1 v -1 0 l 1,-1 v 0 h 1 v 0 h 1 v 0 -1 -1 0 -1 l 2,-1 h 1 2 1 1 2 l 1,-1 v 0 -1 h 1 v -1 h 1 l 1,-1 v 0 h 2 1 1 1 v 0 0 l 1,1 v 0 1 0 0 0 h 1 v 0 0 0 h 1 v 0 h 1 v 0 1 0 1 1 0 l 1,1 h 1 v 1 h 1 1 v 0 1 1 h -1 v 1 0 l 1,1 v 0 l 1,-3 2,-4 1,-1 1,-1 v 0 l -2,-1 -2,-1 -1,-1 -1,-1 -1,-2 -1,-2 -1,-1 1,-2 1,-1 h 2 l 2,1 1,1 v 2 l 1,1 1,1 1,1 h 2 v 0 h 1 l 1,-2 -1,-2 -1,-1 v -2 h -1 v -1 l -2,-8 -1,-1 v -2 l -1,-1 h -2 -1 v 0 h -1 -1 v -2 -1 -1 -1 h 1 v -1 h 1 v -1 -1 l 1,1 h 1 v 0 -1 0 l -1,-1 v -1 0 -1 l 1,-1 v 0 h 1 v 0 -1 h -1 v 0 -1 0 -1 -1 0 0 h -1 -1 v 0 -1 h 1 v -1 0 -1 -2 l -1,-1 v 0 l 1,-1 v 0 l 1,1 h 1 v 0 h 2 v 0 l -1,-1 h -1 v -1 l -1,-1 v 0 -1 0 h 1 v 0 -1 0 h -1 -1 v -1 -1 0 -1 -1 0 0 h 1 v 0 0 h 1 v 0 l 1,-1 v 0 l 1,-1 v -1 0 h -1 v -1 -1 h 1 v -1 h 1 -1 v -1 h -1 v -1 0 l -1,-1 v -1 -1 h -1 v 0 l -1,-1 v -1 0 -1 l -2,-2 -1,-2 v -1 0 h -1 -1 l -1,1 v 0 h -1 v -1 l -1,-1 v 0 -1 -1 -1 -1 l -1,-1 v 0 h -1 l -1,-1 h -2 -2 l -1,-2 v 0 -1 0 h -2 l -1,-1 -1,1 v 1 0 h -1 v -1 l -1,-1 v 0 l -1,1 v 1 l -1,1 h -1 -1 -1 v -1 -1 -1 -1 l -1,-1 v 0 -1 -2 0 0 h -1 v 1 1 h -1 v 1 1 1 0 h -1 v 0 h -1 -1 v -1 -1 h 1 l 1,-1 v -1 0 l 1,-1 -1,-1 v -1 l -1,-1 v 0 -1 0 -1 0 h -1 v 0 h -1 v 0 h -1 v -1 -1 h 1 v -1 l 1,-1 h 1 l 1,-1 v 0 l -5,2 v 0 h -2 -1 -1 l -1,-1 v -1 l -1,-1 v 0 l -1,1 v 0 l -1,-1 v 0 -1 l -1,-1 v -1 h -1 -1 v 1 0 1 l 1,1 v 1 0 1 1 1 0 h -1 v -1 l -1,-1 v -1 0 l -1,-1 v -1 h -1 v -1 -1 0 l 1,-2 v -1 -1 -1 h -1 v -1 -1 l -1,-1 v -1 -2 0 -1 0 l -1,-1 v 0 l -1,-1 -1,-1 v -1 -1 -1 -1 -1 -1 0 -1 l -1,-1 v -1 l -1,-1 v -2 0 l -1,-1 -1,-2 v -1 -1 -2 -1 -1 -1 -1 l -1,-1 -1,-1 h -1 v 0 l -2,-1 -1,-1 -1,-2 -2,-2 -1,-2 v -1 l -1,-3 v -2 l -1,-2 1,-2 v 0 -1 -1 0 l 1,-1 v -3 -2 -1 l -1,-2 v 0 -1 -1 -1 l 1,-1 h 1 l 1,-1 v 0 l 1,-1 v -1 l 1,-1 2,-2 v -2 l 1,-1 h 1 l 1,-1 1,-1 v -1 l 1,-4 -1,-2 v -1 0 -2 l 1,-1 1,-1 v -1 -2 -2 -2 -1 -1 -1 0 0 h 1 v -1 l 1,-1 v -1 l 1,1 1,-1 1,-1 v -2 -1 l -1,-2 -1,-3 v -1 l -1,-1 v -1 l -2,-2 v -2 0 -1 -1 h -1 v -1 0 l -1,-2 v -1 l -1,-1 -1,-2 -1,-1 v -1 l -1,-1 v -1 -1 l -1,-4 -2,-4 -2,-3 v -1 h -1 l 1,-2 1,-1 v -2 -1 l -1,-1 v -2 0 l 1,-1 v 0 -1 l 1,-1 h 1 v 0 l 1,-1 h 1 l 2,-1 1,1 v -1 -1 l 1,-1 v -1 h 1 v -1 -1 0 l -1,-2 -1,-1 v -2 -1 l 1,-1 v -1 l 1,-2 v 0 l -1,-1 -1,-1 h -1 -1 l -1,-1 h -2 l -1,-1 -1,-1 -1,1 -1,1 v 0 h -1 l -2,-2 h -1 v -1 -2 l -1,-1 v -1 l 1,-1 v 0 l 1,-1 1,-1 v -1 -1 -1 -1 h 1 l 1,-1 1,-1 v -1 -1 l 1,-1 v 0 -1 l -1,-1 v -1 l -1,-1 v -1 -3 -3 -1 -1 -3 -2 l 1,-2 -1,-1 v -2 l 1,-3 1,-2 1,-2 v -1 h 2 l 1,-1 1,-1 1,-1 v 0 -1 l 1,-1 -1,-2 v -1 h -1 l -2,-1 -1,-4 -1,-1 -2,-1 -1,-1 -1,-1 -1,-2 -1,-3 v -1 0 l -1,-2 v -2 0 l -1,-1 v -1 0 0 h -1 -2 l -1,1 -2,1 v -10 0 -3 l -2,-1 -1,-2 v -4 l -3,-2 -1,-1 -1,-1 -1,-1 v 0 l -2,-1 v -1 l -1,-1 v -2 h -1 -2 -1 v -1 h -1 -1 v -1 -1 l -1,-1 v -1 h -1 -1 l -1,1 -2,-2 -2,-2 -2,-1 h -1 -1 l -1,2 -1,-2 1,-2 h -1 -2 -1 -1 -2 -1 -1 v 0 -1 h -1 v 0 h -1 l -2,-1 v -1 0 -3 l -1,-1 v 0 l -1,-3 h -1 l -1,-1 v -2 l -2,-1 h -2 -1 -2 l -1,-1 v 0 -2 -1 0 -2 l -1,-2 h -1 l -1,-1 v 0 l -1,-1 -1,-1 h -2 v 0 h -1 l -1,-1 -2,-2 v -4 -1 -1 l -1,-1 v 0 h -2 l -1,-1 v -1 l -1,-1 v 0 -2 0 l -1,-1 -1,-2 -1,-1 -1,-2 v 0 l -1,-1 -1,-1 -1,-1 -1,-1 -1,-1 h -1 v 0 l -1,-1 h -2 v 0 0 l -1,-1 v -1 l -1,-1 v -1 -1 h 1 1 l 1,-1 v -1 l -1,-1 v -2 l -1,-1 -1,-1 v -1 -1 l -1,-1 -1,-1 -2,-1 h -2 -1 l -1,-1 -1,-1 v 0 l -1,-1 7,-6 13,10 3,-6 -2,-2 -1,-7 v -3 -2 l 1,-1 3,-2 3,-3 h 1 l 3,-2 14,5 6,14 2,3 v 0 l 1,2 1,2 8,15 1,6 5,9 v 13 l 6,-2 11,6 h 10 l 4,8 12,-7 9,-1 2,-4 2,-3 1,-5 4,-2 2,1 h 2 l 2,1 1,2 v 1 l 4,1 v 4 0 l 2,1 1,1 1,1 1,1 h 1 l 7,2 6,3 h 1 l 5,5 1,1 1,2 v 3 l 1,2 v 1 l 2,1 v -4 l 1,-2 v -1 h 2 1 v 0 h 1 l 2,-2 2,-1 v -1 -1 -1 -1 -1 -2 l 1,-1 v 0 l -1,-1 1,-1 -1,-1 v -1 l 1,-2 v 0 -1 -1 0 -1 h 1 v 0 l 1,-1 1,-1 h 1 v -1 l 1,-1 v -1 h 1 v -1 h 1 v -1 0 l 2,-1 1,-1 v 0 h 1 v 0 l 1,-1 v 0 0 h 1 v -1 h 1 v 0 h 1 v 0 l 1,1 v 0 0 l 1,1 h 1 v 0 h 1 v 0 0 l 1,-1 v 0 h 1 v -1 0 l 1,-2 v 0 -1 l 1,-1 v -1 -1 l 2,-4 1,-2 1,-1 -2,-10 v -2 l 1,-1 v -1 l -1,-3 v -1 -1 l -1,-2 1,-1 v -2 0 -1 l -1,-1 1,-1 1,-1 v -1 0 -1 0 -1 -1 0 -1 -2 l 1,-1 1,-1 v -1 0 l 1,-1 v -1 l 1,-1 v -1 l -1,-1 v -1 -1 0 -1 -2 l 1,-1 v -1 l 1,-1 v -1 -1 -2 l 1,-1 -1,-1 v -2 -1 h 1 l 1,-1 1,-1 1,-2 1,-2 -1,-2 v -2 l -1,-1 v 0 h -1 v -2 0 l 1,-1 1,-1 v -1 l 1,-1 1,-1 2,-1 2,-1 2,-1 v 0 -1 l 1,-2 3,-3 v 0 -1 l 1,-1 1,-1 2,-2 1,-1 1,-2 v -2 -1 0 l 1,-1 1,-2 v -1 l 8,-3 1,1 1,1 v 0 0 l 2,-1 3,-1 v 1 1 1 0 l 1,1 1,-1 v 0 h 1 1 1 v 1 l 1,1 v 1 h 1 1 l 1,-1 2,-1 1,-1 1,-1 h 1 l 2,-1 v -1 -2 0 l 1,-1 h 1 1 l 1,-1 v -1 l 2,-1 3,-1 v 0 l 1,-1 1,-3 v 0 l 1,-1 1,-1 h 1 l 3,1 v 0 h 1 l 5,-2 h 1 l 1,-1 h 1 l 1,1 v 0 2 2 1 l 1,2 1,3 1,1 2,4 3,3 2,2 4,3 1,3 2,3 v 1 l 28,13 v 2 l 7,15 v 2 l 1,1 1,2 v 1 l -1,2 -3,6 -1,2 -7,9 -3,4 -4,6 v 0 2 2 2 2 2 l -1,1 1,3 v 1 l 1,2 3,2 -19,17 2,3 h 1 l 3,-1 h 4 l 5,2 -3,13 v 2 l -5,12 -2,4 -3,6 1,5 8,34 23,9 6,3 3,6 1,1 -1,1 2,3 1,1 1,2 2,4 2,4 1,1 3,6 1,2 12,9 2,2 1,1 v 1 2 l -1,4 v 1 l -1,3 v 2 2 2 1 l -7,10 -3,4 -2,4 -1,1 v 0 0 1 h 1 l -1,1 v 0 l -1,1 v 0 0 h -1 v 0 1 0 1 h -1 l -1,1 v 0 0 2 l -17,28 v 1 l -1,2 -1,2 -1,2 -1,2 v 2 3 l 1,2 v 2 l 1,3 1,1 v 2 l 2,2 1,2 1,2 3,6 1,1 1,2 1,2 2,2 h -1 l 1,1 1,1 v 1 l 1,1 v 1 0 l 1,1 1,1 1,2 1,1 v 2 l 7,15 1,3 2,7 v 2 l 1,2 1,1 8,12 2,3 3,10 1,2 v 0 l 1,2 v 0 1 l 1,2 v 0 l 1,4 1,3 2,9 1,6 1,4 v 4 4 l -1,-1 h -1 l -2,-1 h -1 -1 l -12,7 3,3 1,2 3,2 -5,8 v 1 1 l -1,1 1,2 v 2 2 3 2 l 1,2 v 2 l -3,3 -3,4 -1,2 2,2 1,1 h 2 2 2 l 4,1 1,2 -3,6 3,4 v 0 l -1,1 -1,1 h -5 l -5,4 v 2 2 2 h -1 v 1 2 l 1,3 v 3 l 1,4 1,1 1,2 1,3 v 1 l 3,4 h 4 l 2,-1 h 3 3 2 l 2,1 1,1 -2,3 -1,2 1,2 2,2 3,4 v 1 l -1,2 -2,1 -2,2 -1,1 v 4 4 l 1,2 1,1 -1,1 1,1 1,2 v 2 4 l 1,1 1,2 1,2 3,1 4,1 1,1 1,1 3,2 1,2 5,2 2,4 -2,3 2,4 2,3 v 2 5 2 l -1,2 -1,3 -1,1 -1,1 -1,2 v 1 l -1,1 -1,1 -2,4 -1,1 v 1 1 l -3,8 -2,1 -4,2 v 0 0 l -1,1 v 0 l -2,1 -2,1 h -1 v 1 0 1 h 1 v 1 1 0 l 2,2 v 0 l 1,1 v 0 l 1,1 1,1 v 0 l 6,6 2,2 v 2 l 1,1 3,2 h 1 v 0 l 1,1 1,1 1,1 v 1 l 2,1 v 1 l 2,3 1,2 h 1 v 0 h 1 v 0 l 3,1 1,1 h 1 l 1,1 h 2 l 5,2 1,1 1,1 v 0 l 1,2 h 1 v 0 l 1,1 h 2 l 1,1 v 0 1 l 1,2 h 1 v 1 h 1 l 1,1 h 1 1 l 1,1 1,1 h 1 l 1,2 1,1 v 0 l 2,1 1,1 1,1 v 0 l 1,1 -1,1 1,1 1,1 v 1 1 2 1 1 0 l 1,2 2,2 v 1 h 2 l 1,1 v 0 l 1,2 v 0 h 1 l 1,1 v 0 l 2,1 v 1 0 1 1 h 1 v 0 l 1,1 h 1 l 1,3 v 0 l 1,1 1,2 v 1 0 l 1,2 v 1 1 h -1 v 1 1 l -3,5 v 1 0 l -1,2 v 1 1 1 0 0 h -1 v 1 0 1 h -1 v 1 1 l -1,4 v 2 1 1 0 2 l -1,1 v 0 1 h -1 v 3 h -1 v 1 1 l -2,6 v 0 h -1 v 2 1 l -1,1 v 1 h -1 v 1 h -1 v 4 l -1,1 -1,1 v 0 l -1,1 -1,1 v 0 l -1,1 -1,1 -1,1 v 1 l -1,2 -1,1 v 0 l -2,3 v 1 h 1 v 0 l -1,1 v 1 1 h -1 l -1,-1 v 0 l -1,1 -1,1 -1,1 v 0 1 0 h -1 l -1,1 v 1 1 0 l -1,1 v 0 l -1,1 -2,3 h -2 -1 v 1 l -1,1 -1,2 h 1 v 1 l -1,1 v 2 l -1,1 -3,3 -1,2 -1,2 v 0 1 l -1,1 v 1 l -1,1 -1,1 -1,1 v 0 1 l -1,1 v 1 l -2,2 v 0 h -1 v 1 l -1,1 v 1 0 l 1,1 -1,1 v 0 h -1 v 0 l -1,1 v 0 l -1,1 -1,2 v 0 l -1,1 v 0 1 0 l -1,1 -1,2 -1,1 v 0 0 l -1,1 -1,1 v 0 l -1,1 v 1 l -1,1 v 1 1 2 h -1 v 1 l -2,2 v 0 l -2,2 -1,1 v 0 l -1,1 -1,1 v 0 l -1,2 v 0 l -1,1 v 1 0 h -1 v 0 l -1,1 v 1 1 l -1,1 v 0 l -1,1 v 0 1 l -1,2 h -1 v 3 0 0 l -1,1 v 1 h -1 l -1,2 h -1 v 1 l -1,1 h 1 l -1,1 v 1 h -1 v 1 h -1 l -4,1 h -1 v 1 0 2 1 h -1 l -2,3 v 1 l -1,1 -1,1 -1,1 v 0 l -1,1 v 1 l -2,2 v 1 0 1 l -1,1 v 0 l -2,3 v 1 l -1,1 v 1 l -1,1 v 0 h -1 l -2,3 -3,2 -1,1 v 0 l -2,2 h -1"
         id="path804" />
      <g
         style="fill:none"
         transform="translate(0,-7800)"
         id="g1169">
        <text
           x="3755"
           y="1107"
           font-family="Verdana"
           font-size="20px"
           style="fill:#808080;stroke:#808080"
           id="text1066">670</text>
        <text
           x="3755"
           y="1007"
           font-family="Verdana"
           font-size="20px"
           style="fill:#808080;stroke:#808080"
           id="text1068">680</text>
        <text
           x="3755"
           y="907"
           font-family="Verdana"
           font-size="20px"
           style="fill:#808080;stroke:#808080"
           id="text1070">690</text>
        <text
           x="3755"
           y="807"
           font-family="Verdana"
           font-size="20px"
           style="fill:#808080;stroke:#808080"
           id="text1072">700</text>
        <text
           x="3755"
           y="707"
           font-family="Verdana"
           font-size="20px"
           style="fill:#808080;stroke:#808080"
           id="text1074">710</text>
        <text
           x="3755"
           y="607"
           font-family="Verdana"
           font-size="20px"
           style="fill:#808080;stroke:#808080"
           id="text1076">720</text>
        <text
           x="3755"
           y="507"
           font-family="Verdana"
           font-size="20px"
           style="fill:#808080;stroke:#808080"
           id="text1078">730</text>
        <text
           x="3755"
           y="407"
           font-family="Verdana"
           font-size="20px"
           style="fill:#808080;stroke:#808080"
           id="text1080">740</text>
        <text
           x="3755"
           y="307"
           font-family="Verdana"
           font-size="20px"
           style="fill:#808080;stroke:#808080"
           id="text1082">750</text>
        <text
           x="3755"
           y="207"
           font-family="Verdana"
           font-size="20px"
           style="fill:#808080;stroke:#808080"
           id="text1084">760</text>
        <text
           x="3755"
           y="107"
           font-family="Verdana"
           font-size="20px"
           style="fill:#808080;stroke:#808080"
           id="text1086">770</text>
        <text
           x="3080"
           y="1220"
           font-family="Verdana"
           font-size="20px"
           style="fill:#808080;stroke:#808080"
           id="text1088">310</text>
        <text
           x="3180"
           y="1220"
           font-family="Verdana"
           font-size="20px"
           style="fill:#808080;stroke:#808080"
           id="text1090">320</text>
        <text
           x="3280"
           y="1220"
           font-family="Verdana"
           font-size="20px"
           style="fill:#808080;stroke:#808080"
           id="text1092">330</text>
        <text
           x="3380"
           y="1220"
           font-family="Verdana"
           font-size="20px"
           style="fill:#808080;stroke:#808080"
           id="text1094">340</text>
        <text
           x="3480"
           y="1220"
           font-family="Verdana"
           font-size="20px"
           style="fill:#808080;stroke:#808080"
           id="text1096">350</text>
        <text
           x="3580"
           y="1220"
           font-family="Verdana"
           font-size="20px"
           style="fill:#808080;stroke:#808080"
           id="text1098">360</text>
        <text
           x="3680"
           y="1220"
           font-family="Verdana"
           font-size="20px"
           style="fill:#808080;stroke:#808080"
           id="text1100">370</text>
        <path
           style="fill:#ffffff;stroke:none"
           d="m 3001,1 h 449 V 70 H 3001 V 1"
           id="path1102" />
        <text
           x="3010"
           y="40"
           font-family="Verdana"
           font-size="30px"
           style="fill:#000000"
           id="species-map-name"></text>
        <text
           id="ykjinfo"
           x="3550"
           y="1150"
           font-family="Verdana"
           font-size="40px"
           style="fill:#000000;stroke:#000000" />
      </g>
    </g>
  </g>
  <!-- Coordinate transformation turns y-axis upside down -->
  <a
     xlink:href="https://laji.fi/observation/finnish?sourceId=KE.167&amp;target=MX.40064&amp;coordinates=.:.:30  :YKJ:1"
     target="_blank"
     id="a810"
     transform="scale(1,-1)"
     style="fill:none">
    <circle
       cx="3005"
       cy="5"
       r="4"
       style="fill:#ffffff;fill-opacity:0;stroke:#000000"
       onmouseover="showGrid('.:.:30  ')"
       onmouseout="showGrid('')"
       id="circle808" />
  </a>
  <!-- Coordinate transformation for texts -->
  <g
     inkscape:groupmode="layer"
     id="layer2"
     inkscape:label="Layer 2"
     style="display:inline">
    <path
       style="fill:none;stroke:#d3d3d3"
       d="m 3483,-6910 2,7 v 2 h -2 v -2 l -1,1 2,5 h 1 l -1,-2 h 1 l 3,5 v 0 -2 h 1 l 2,6 -1,2 v 4 l 2,2 v 2 l 2,-2 2,2 h 1 l 3,4 h 2 l 1,1 v 1 1 l 3,1 -1,1 1,1 v 1 l 2,2 1,2 h 2 l 1,-1 h 1 v 0 -1 l -1,-1 v -1 0 l 1,-1 v 1 0 l 1,2 v 1 h 1 v -2 l 1,-1 v 0 l 1,-1 v 1 0 0 l 1,1 v 0 -1 l 1,-1 -1,-2 v -4 h 1 1 v -2 l -1,-4 h 1 l 1,1 2,2 7,-1 1,1 2,-1 2,3 3,1 3,2 3,-3 h 1 l 1,-1 -1,-2 h 1 v -1 -1 l 2,1 1,-1 -1,-3 1,-1 2,3 1,-1 -2,-3 1,-1 1,1 1,-2 h 3 l -3,-5 v -5 h 3 l -1,-3 h 6 l 2,2 2,-1 v -1 -1 -1 0 h -1 v -1 0 0 h -1 -1 l -1,-1 v 0 -1 0 0 h 1 v 0 l 1,1 v 0 l 1,1 v 0 0 0 -1 h 1 1 1 l -1,1 v 1 h 1 1 1 l -1,-1 1,-1 v 0 0 0 l 1,1 1,-1 h 1 v 1 0 l 1,1 1,3 v 0 0 0 0 h 1 l -1,-1 v 0 l 1,1 v 0 0 l -1,2 h 1 2 l 2,2 v -1 l 4,5 1,-1 1,-4 h -2 l 1,-1 1,-1 v -3 l 2,1 2,-1 v 2 l 2,2 1,-1 1,-2 h 1 1 v -1 l 2,2 h 1 1 v 1 l -1,1 1,1 2,-2 4,3 -1,1 4,4 -1,4 h 1 l 1,-1 1,1 2,1 v -2 l 2,-1 1,2 h 1 l 1,-1 h 3 l -2,-6 8,-1 2,10 3,3 2,1 6,6 -3,3 v 4 l 5,5 -1,1 1,4 v 3 l -3,4 h -1 l -3,3 v 1 5 l -8,4 -5,6 -2,4 -1,5 v 3 l 1,6 1,1 2,2 4,2 v 0 0 1 l -2,2 v 1 0 1 l -1,1 v 0 l -2,3 v 1 l -1,1 v 1 l -1,1 v 0 h -1 l -2,3 -3,2 -1,1 v 0 l -2,2 h -1 -1 v 0 l -3,2 -2,3 h -3 v 0 l -1,-1 v 0 h -2 l -2,1 v 0 h 1 v 1 0 0 l -2,1 v 0 -1 0 l -1,1 v 5 0 0 l -1,1 v 1 h -1 v 1 h -1 v 1 h 1 v 0 1 0 1 0 1 h -1 l -1,1 v 0 0 1 h 1 v 0 1 l -2,-1 -2,1 -1,-1 -1,1 -1,-2 -1,2 h -1 l -1,-2 -3,-1 h -1 v 0 0 0 0 1 l -1,2 -1,2 v 0 h -1 v 1 0 0 h -1 v 0 1 l -1,-1 v 0 h -1 v 0 0 0 0 0 h 1 l -1,1 v 0 l 1,1 v 0 l 1,1 v 1 l 2,2 1,1 h -1 l 1,1 1,1 v 0 h 1 l -1,1 h -1 v 1 l -1,1 -1,1 h -1 v 1 0 l -1,2 v 1 h -1 l -1,1 v 0 0 0 h -1 v 0 0 h -1 -1 l 2,-2 -3,-2 h -2 l -4,-2 h -1 l -3,1 v -1 0 0 -1 h -1 -1 v 1 0 h -4 l -1,4 v 1 h -1 v -1 -1 l 1,-2 h -1 v -1 l -2,3 1,2 -1,1 -1,1 h -2 -2 l 1,-1 h -1 -1 v 1 h -2 l 1,2 -1,2 v 0 l -1,-1 v 0 h -1 l -4,-1 -2,1 h -3 l -3,-2 -1,-3 v 0 l -2,-3 -3,-2 -6,-1 -2,-2 -1,-2 -5,2 v 1 1 0 h -3 v 2 0 l 1,1 -3,1 -5,3 -5,1 -2,2 -1,1 -1,-2 v -2 l -2,-1 -2,1 -1,-1 1,-1 2,-5 -1,-5 v -1 h 2 l 2,-6 h -3 v 3 l -6,3 v -3 l -2,-3 1,-1 1,1 1,-1 v -1 h 2 v -1 l -1,-2 2,-3 h 2 l -1,-1 1,-1 h 2 v -2 -5 h 1 v -2 l -4,-4 -2,-1 2,-3 -2,-5 -3,2 -1,-1 -2,1 -1,-1 v -2 l -2,-3 h -3 l -5,-4 1,-1 -2,1 v -2 l 1,-2 -2,-3 -2,-3 3,-1 v -3 l -2,-2 v -1 h 2 l 1,-3 -2,-4 h 2 l 1,-3 2,-1 v -3 h -2 l -1,-2 -1,2 h -3 l -2,-1 -2,4 -1,-1 v -1 l -4,-4 2,-3 -1,-2 v -2 l -1,-1 v 0 -1 h -1 l 1,-2 v 0 -1 h -1 v 0 0 0 1 0 -1 h -1 v 0 0 0 l -1,2 v -1 l -3,-1 v -2 h -1 v 3 h -3 l 1,-4 h -2 l 4,-6 -1,-3 -2,-1 6,-8 -1,-2 v -2 l 2,-4 h 3 2 l 2,4 3,-5 h 5 1 1 l -5,-8 5,-9 1,1 5,-2 v -2 h 1 v 1 l 3,-1 -1,-2 2,-1 -1,-1 1,1 1,-2 1,2 h 1 l 1,3 h 1 v 1 h 1 1 v -2 h -1 l -1,-4 1,-1 -1,-1 4,-2 m 144,-358 v 1 l -1,1 1,2 v 2 2 3 2 l 1,2 v 2 l -3,3 -3,4 -1,2 2,2 1,1 h 2 2 2 l 4,1 1,2 -3,6 3,4 v 0 l -1,1 -1,1 h -5 l -5,4 v 2 2 2 h -1 v 1 2 l 1,3 v 3 l 1,4 1,1 1,2 1,3 v 1 l 3,4 h 4 l 2,-1 h 3 3 2 l 2,1 1,1 -2,3 -1,2 1,2 2,2 3,4 v 1 l -1,2 -2,1 -2,2 -1,1 v 4 4 l 1,2 1,1 -1,1 1,1 1,2 v 2 4 l 1,1 1,2 1,2 3,1 4,1 1,1 1,1 3,2 1,2 5,2 2,4 -2,3 2,4 2,3 v 2 5 2 l -1,2 -1,3 -1,1 -1,1 -1,2 v 1 l -1,1 -1,1 -2,4 -1,1 v 1 1 l -3,8 -2,1 -4,2 v 0 0 l -1,1 v 0 l -2,1 -2,1 h -1 v 1 0 1 h 1 v 1 0 h -2 v 0 h -5 l -4,5 -3,-3 -3,-16 -6,2 -12,2 -7,1 h -2 l -11,1 -17,-3 -4,1 -1,1 1,1 -5,11 -5,9 -1,-1 -1,-3 -3,-2 h -1 l -5,-7 -6,-7 h -1 -1 l -7,-6 -4,-2 h -1 l -5,-4 h -3 v 1 0 h -3 v -2 l -8,-2 -6,-1 v 1 l -1,-1 h -5 l -7,-5 -1,1 -4,-4 v -18 -4 h -4 l -1,-2 1,-5 h -6 l -5,-5 1,-2 -3,-6 -5,-4 -1,-2 8,-8 h 4 l 14,3 3,1 2,-4 -1,-2 v -1 -4 l -3,-4 1,-3 1,-2 v -4 l 1,-2 11,-9 10,3 2,-4 -1,-5 1,-3 -1,-2 1,-1 -6,-9 2,-7 h 7 l 6,-1 3,-3 11,3 2,-8 v -5 l 3,-1 2,-2 6,-2 20,-3 1,-3 -1,-1 1,-4 2,-3 -1,-1 14,-7 4,1 4,-1 4,-5 v -3 l 5,-1 10,4 v -2 h 3 l 3,1 h 2 2 v 0 m -70,200 -6,12 1,2 -1,2 v 3 l 1,2 1,1 2,2 1,1 -1,2 v 1 l -1,2 v 1 1 h -1 l -2,-1 2,4 3,2 2,1 v -1 l 2,1 h 2 l 1,6 h 3 v -6 h 2 1 1 l 1,5 v 2 h 1 v 2 l 1,2 h -1 -2 v 1 h -1 -1 -1 l 1,1 -1,2 v 1 l -1,2 3,9 -1,1 v 0 h 1 v 1 0 0 0 0 1 0 1 0 h 1 v 1 0 1 0 l 2,4 3,4 -3,3 -1,-1 -2,2 3,1 v 1 l 2,1 1,1 h 1 l 6,5 h 2 v 1 l 3,4 -1,1 1,2 h 1 v 3 l -1,2 h -2 l -2,1 v 2 l 1,2 2,3 2,1 v 1 0 l 1,1 2,4 4,4 5,2 -1,2 4,3 -1,2 5,3 v -1 l 1,1 -2,7 2,1 -1,1 2,1 2,1 v -2 h 2 l 1,-1 2,1 2,1 1,7 5,9 2,1 -1,4 1,5 -8,1 2,6 h -3 l -1,1 h -1 l -1,-2 -2,1 v 2 l -2,-1 -1,-1 -1,1 h -1 l 1,-4 -4,-4 1,-1 -4,-3 -2,2 -1,-1 1,-1 v -1 h -1 -1 l -2,-2 v 1 h -1 -1 l -1,2 -1,1 -2,-2 v -2 l -2,1 -2,-1 v 3 l -1,1 -1,1 h 2 l -1,4 -1,1 -4,-5 v 1 l -2,-2 h -2 -1 l 1,-2 v 0 0 l -1,-1 v 0 l 1,1 h -1 v 0 0 0 0 l -1,-3 -1,-1 v 0 -1 h -1 l -1,1 -1,-1 v 0 0 0 l -1,1 1,1 h -1 -1 -1 v -1 l 1,-1 h -1 -1 -1 v 1 0 0 0 l -1,-1 v 0 l -1,-1 v 0 h -1 v 0 0 1 0 l 1,1 h 1 1 v 0 0 1 h 1 v 0 1 1 1 l -2,1 -2,-2 h -6 l 1,3 h -3 v 5 l 3,5 h -3 l -1,2 -1,-1 -1,1 2,3 -1,1 -2,-3 -1,1 1,3 -1,1 -2,-1 v 1 1 h -1 l 1,2 -1,1 h -1 l -3,3 -3,-2 -3,-1 -2,-3 -2,1 -1,-1 -7,1 -2,-2 -1,-1 h -1 l 1,4 v 2 h -1 -1 v 4 l 1,2 -1,1 v 1 0 l -1,-1 v 0 0 -1 l -1,1 v 0 l -1,1 v 2 h -1 v -1 l -1,-2 v 0 -1 l -1,1 v 0 1 l 1,1 v 1 0 h -1 l -1,1 h -2 l -1,-2 -2,-2 v -1 l -1,-1 1,-1 -3,-1 v -1 -1 l -1,-1 h -2 l -3,-4 h -1 l -2,-2 -2,2 v -2 l -2,-2 v -4 l 1,-2 -2,-6 h -1 v 2 0 l -3,-5 h -1 l 1,2 h -1 l -2,-5 1,-1 v 2 h 2 v -2 l -2,-7 -1,-1 -1,-1 1,-1 v -1 l 6,-1 -5,-6 1,-2 v -3 h 1 l 2,3 3,-2 v -2 l 2,-2 h 1 l 1,-5 h -2 v -1 l 2,-1 v -1 l -2,-3 h -1 l -1,-1 4,-1 4,2 1,-2 -1,-1 -1,1 -2,-2 v -1 l 1,-1 -1,-1 v -3 l -1,-5 v -2 l -3,-8 -1,-4 v -1 h -1 v 2 h -1 v 0 0 0 h -1 l -1,-1 h -2 -1 l -1,-1 -1,-3 2,-3 -2,-6 -5,-3 2,-1 -1,-1 3,-2 v -2 -1 l -7,-8 -1,-7 -1,-4 -1,-6 -3,-3 -1,-1 -1,-1 v -4 l -5,-10 h -2 l -2,-2 2,-3 1,-2 v -8 l 5,-1 -2,-25 -1,-3 2,-1 14,-13 3,-3 12,-5 1,-1 7,5 h 5 l 1,1 v -1 l 6,1 8,2 v 2 h 3 v 0 -1 h 3 l 5,4 h 1 l 4,2 7,6 h 1 1 l 6,7 5,7 h 1 m -143,-544 v -1 -1 l 1,-1 v -1 h 2 1 v 0 h 1 l 2,-2 2,-1 v -1 -1 -1 -1 -1 -2 l 1,-1 v 0 l -1,-1 1,-1 -1,-1 v -1 l 1,-2 v 0 -1 -1 0 -1 h 1 v 0 l 1,-1 1,-1 h 1 v -1 l 1,-1 v -1 h 1 v -1 h 1 v -1 0 l 2,-1 1,-1 v 0 h 1 v 0 l 1,-1 v 0 0 h 1 v -1 h 1 v 0 h 1 v 0 l 1,1 v 0 0 l 1,1 h 1 v 0 h 1 v 0 0 l 1,-1 v 0 h 1 v -1 0 l 1,-2 v 0 -1 l 1,-1 v -1 -1 l 2,-4 1,-2 1,-1 -2,-10 v -2 l 1,-1 v -1 l -1,-3 v -1 -1 l -1,-2 1,-1 v -2 0 -1 l -1,-1 1,-1 1,-1 v -1 0 -1 0 -1 -1 0 -1 -2 l 1,-1 1,-1 v -1 0 l 1,-1 v -1 l 1,-1 v -1 l -1,-1 v -1 -1 0 -1 -2 l 1,-1 v -1 l 1,-1 v -1 -1 -2 l 1,-1 -1,-1 v -2 -1 h 1 l 1,-1 1,-1 1,-2 1,-2 -1,-2 v -2 l -1,-1 v 0 h -1 v -2 0 l 1,-1 1,-1 v -1 l 1,-1 1,-1 2,-1 2,-1 2,-1 v 0 -1 l 1,-2 3,-3 v 0 -1 l 1,-1 1,-1 2,-2 1,-1 1,-2 v -2 -1 0 l 1,-1 1,-2 v -1 l 8,-3 1,1 1,1 v 0 0 l 2,-1 3,-1 v 1 1 1 0 l 1,1 1,-1 v 0 h 1 1 1 v 1 l 1,1 v 1 h 1 1 l 1,-1 2,-1 1,-1 1,-1 h 1 l 2,-1 v -1 -2 0 l 1,-1 h 1 1 l 1,-1 v -1 l 2,-1 3,-1 v 0 l 1,-1 1,-3 v 0 l 1,-1 1,-1 h 1 l 3,1 v 0 h 1 l 5,-2 h 1 l 1,-1 h 1 l 1,1 v 0 2 2 1 l 1,2 1,3 1,1 2,4 3,3 2,2 4,3 1,3 2,3 v 1 l 28,13 v 2 l 7,15 v 2 l 1,1 1,2 v 1 l -1,2 -3,6 -1,2 -7,9 -3,4 -4,6 v 0 2 2 2 2 2 l -1,1 1,3 v 1 l 1,2 3,2 -19,17 2,3 h 1 l 3,-1 h 4 l 5,2 -3,13 v 2 l -5,12 -2,4 -3,6 1,5 h -1 v 0 0 l -9,4 -30,14 -53,3 -9,4 -19,-4 -20,-10 -4,-17 -1,-2 v -2 m 5,21 -14,1 -12,6 -11,20 -9,3 -3,1 -4,-7 -2,-3 h -17 l -1,3 v 0 h -1 -2 l -1,1 -2,1 v -10 0 -3 l -2,-1 -1,-2 v -4 l -3,-2 -1,-1 -1,-1 -1,-1 v 0 l -2,-1 v -1 l -1,-1 v -2 h -1 -2 -1 v -1 h -1 -1 v -1 -1 l -1,-1 v -1 h -1 -1 l -1,1 -2,-2 -2,-2 -2,-1 h -1 -1 l -1,2 -1,-2 1,-2 h -1 -2 -1 -1 -2 -1 -1 v 0 -1 h -1 v 0 h -1 l -2,-1 v -1 0 -3 l -1,-1 v 0 l -1,-3 h -1 l -1,-1 v -2 l -2,-1 h -2 -1 -2 l -1,-1 v 0 -2 -1 0 -2 l -1,-2 h -1 l -1,-1 v 0 l -1,-1 -1,-1 h -2 v 0 h -1 l -1,-1 -2,-2 v -4 -1 -1 l -1,-1 v 0 h -2 l -1,-1 v -1 l -1,-1 v 0 -2 0 l -1,-1 -1,-2 -1,-1 -1,-2 v 0 l -1,-1 -1,-1 -1,-1 -1,-1 -1,-1 h -1 v 0 l -1,-1 h -2 v 0 0 l -1,-1 v -1 l -1,-1 v -1 -1 h 1 1 l 1,-1 v -1 l -1,-1 v -2 l -1,-1 -1,-1 v -1 -1 l -1,-1 -1,-1 -2,-1 h -2 -1 l -1,-1 -1,-1 v 0 l -1,-1 7,-6 13,10 3,-6 -2,-2 -1,-7 v -3 -2 l 1,-1 3,-2 3,-3 h 1 l 3,-2 14,5 6,14 2,3 v 0 l 1,2 1,2 8,15 1,6 5,9 v 13 l 6,-2 11,6 h 10 l 4,8 12,-7 9,-1 2,-4 2,-3 1,-5 4,-2 2,1 h 2 l 2,1 1,2 v 1 l 4,1 v 4 0 l 2,1 1,1 1,1 1,1 h 1 l 7,2 6,3 h 1 l 5,5 1,1 1,2 v 3 l 1,2 v 1 l 2,1 v -3 0 2 l 1,2 4,17 m 141,-11 8,34 23,9 6,3 3,6 1,1 -1,1 2,3 1,1 1,2 2,4 2,4 1,1 3,6 v 1 l -1,2 v 0 l -6,11 -9,10 -3,8 -5,7 -6,10 v 3 l -10,22 1,1 -1,1 -13,4 -12,8 -6,1 -3,16 -13,-13 h -8 -8 -3 l -28,8 -6,-1 -2,-4 -16,-14 -12,-2 v 2 h -2 v -3 l -12,-2 5,-15 h -1 l -1,-1 v -1 -2 l 2,-1 v 2 h 3 l -2,-2 2,-1 2,1 2,-1 1,-2 -2,-2 1,-1 2,2 5,-7 -1,-12 13,-45 -6,-19 5,-19 9,-4 53,-3 30,-14 9,-4 v 0 0 h 1 m -102,25 -5,19 6,19 -13,45 1,12 -5,7 -2,-2 -1,1 2,2 -1,2 -2,1 -2,-1 -2,1 2,2 h -3 v -2 l -2,1 v 2 1 l 1,1 h 1 l -5,15 -22,-4 -4,2 5,24 -29,-6 -2,-3 -16,1 -1,-1 v -1 l -1,-1 v -1 l -1,-1 v -1 -1 l -1,-4 -2,-4 -2,-3 v -1 h -1 l 1,-2 1,-1 v -2 -1 l -1,-1 v -2 0 l 1,-1 v 0 -1 l 1,-1 h 1 v 0 l 1,-1 h 1 l 2,-1 1,1 v -1 -1 l 1,-1 v -1 h 1 v -1 -1 0 l -1,-2 -1,-1 v -2 -1 l 1,-1 v -1 l 1,-2 v 0 l -1,-1 -1,-1 h -1 -1 l -1,-1 h -2 l -1,-1 -1,-1 -1,1 -1,1 v 0 h -1 l -2,-2 h -1 v -1 -2 l -1,-1 v -1 l 1,-1 v 0 l 1,-1 1,-1 v -1 -1 -1 -1 h 1 l 1,-1 1,-1 v -1 -1 l 1,-1 v 0 -1 l -1,-1 v -1 l -1,-1 v -1 -3 -3 -1 -1 -3 -2 l 1,-2 -1,-1 v -2 l 1,-3 1,-2 1,-2 v -1 h 2 l 1,-1 1,-1 1,-1 v 0 -1 l 1,-1 -1,-2 v -1 h -1 l -2,-1 -1,-4 -1,-1 -2,-1 -1,-1 -1,-1 -1,-2 -1,-3 v -1 0 l -1,-2 v -2 0 l -1,-1 v -1 0 l 1,-3 h 17 l 2,3 4,7 3,-1 9,-3 11,-20 12,-6 14,-1 20,10 19,4 m 154,50 1,2 12,9 2,2 1,1 v 1 2 l -1,4 v 1 l -1,3 v 2 2 2 1 l -7,10 -3,4 -2,4 -1,1 v 0 0 1 h 1 l -1,1 v 0 l -1,1 v 0 0 h -1 v 0 1 0 1 h -1 l -1,1 v 0 0 2 l -17,28 v 1 l -1,2 -1,2 -1,2 -1,2 v 2 3 l 1,2 v 2 l 1,3 1,1 v 2 l 2,2 1,2 1,2 3,6 1,1 1,2 1,2 2,2 h -1 l 1,1 1,1 v 1 l 1,1 v 1 0 l 1,1 1,1 1,2 1,1 v 2 l 7,15 1,3 2,7 v 2 l 1,2 1,1 8,12 2,3 3,10 1,2 v 0 l 1,2 v 0 1 l 1,2 v 0 l 1,4 1,3 2,9 1,6 1,4 v 4 4 l -1,-1 h -1 l -2,-1 h -1 -1 l -12,7 3,3 1,2 3,2 -3,5 -1,2 -1,1 v 1 0 h -2 -2 l -3,-1 h -3 v 2 l -10,-4 -5,1 v 3 l -4,5 -4,1 -4,-1 -14,7 1,1 -2,3 -1,4 1,1 -1,3 -20,3 -2,-10 -6,-7 h -6 l -2,-4 -1,-4 -1,-3 2,-16 -2,-2 -1,-11 -3,-1 2,-5 1,-2 -4,-6 -1,-6 -3,1 -1,2 h -2 l -5,-4 1,-1 v -16 l -8,-3 v -7 l 2,-3 -3,-2 1,-4 -2,-3 1,-3 8,5 7,-11 v -2 l 8,-3 10,1 6,-1 -3,-9 5,-14 -1,-7 -3,-3 -2,1 -5,-7 -3,-12 3,-16 6,-1 12,-8 13,-4 1,-1 -1,-1 10,-22 v -3 l 6,-10 5,-7 3,-8 9,-10 6,-11 v 0 l 1,-2 v -1 m -241,539 1,-1 h 1 l 3,-1 1,2 1,-1 -1,-1 -3,-1 -1,1 h -4 v 0 h -1 v 0 l -4,-1 1,-1 -2,-3 v 0 1 l -4,2 v -2 h 1 v 1 l 2,-1 v -2 0 -2 h 2 l -1,2 3,1 v 1 h 1 v -2 h 4 l -5,-7 10,-4 11,2 -2,-1 v -5 l 1,-1 1,-1 -1,-4 1,-1 v -1 l 2,-1 v -3 l -1,-7 6,-7 8,-3 2,-1 2,-4 1,-8 5,-4 5,4 6,6 4,1 h 7 l 6,3 3,6 7,2 6,-3 2,2 h 2 l 5,10 v 4 l 1,1 1,1 3,3 1,6 1,4 1,7 7,8 v 1 2 l -3,2 1,1 -2,1 5,3 2,6 -2,3 1,3 1,1 h 1 2 l 1,1 h 1 v 0 0 0 h 1 v -2 h 1 v 1 l 1,4 3,8 v 2 l 1,5 v 3 l 1,1 -1,1 v 1 l 2,2 1,-1 1,1 -1,2 -4,-2 -4,1 1,1 h 1 l 2,3 v 1 l -2,1 v 1 h 2 l -1,5 h -1 l -2,2 v 2 l -3,2 -2,-3 h -1 v 3 l -1,2 5,6 -6,1 v 1 l -1,1 1,1 1,1 -4,2 1,1 -1,1 1,4 h 1 v 2 h -1 -1 v -1 h -1 l -1,-3 h -1 l -1,-2 -1,2 -1,-1 1,1 -2,1 1,2 -3,1 v -1 h -1 v 2 l -5,2 -1,-1 -5,9 5,8 h -1 -1 -5 l -3,5 -2,-4 h -2 -3 l -2,4 -6,-5 -3,-1 v -2 l 1,-1 v -4 -2 h 1 l -1,-3 -1,-2 h -2 v 1 l -3,-2 v -2 l -4,2 v -1 -4 l -1,-2 -2,2 h -2 l -2,-2 h -2 -2 l -2,1 v 4 l -3,5 -7,-1 h -2 l -5,-4 -3,-2 -4,5 -3,6 2,6 -7,3 -2,-3 h -2 l 1,-7 -3,-1 -3,-8 -3,-1 v 1 l -2,1 -1,1 v 2 h -1 l -1,-1 h -2 l -3,-3 -2,-8 -1,1 h -3 v 0 l 1,1 v 1 l -1,-1 h -1 l 1,2 h -1 l -1,-1 h -1 v 0 l -4,-1 h -1 -1 l 1,2 h -1 v 1 0 l -2,3 1,1 v 1 l 1,4 v 0 l -3,-1 -3,-1 -2,-2 -1,-3 -1,1 1,6 -4,1 -1,3 -1,1 -3,-2 -1,1 -2,1 -5,-5 -6,-5 -1,-7 -8,-13 1,-3 1,1 1,-2 -1,-1 2,-3 2,-2 1,3 1,-1 2,3 2,1 1,-1 3,2 -1,-5 9,1 5,-5 1,1 1,-1 v 0 1 h 1 v -1 -1 l -1,-1 2,-2 3,-4 2,1 2,-1 v -3 l 2,-2 -1,-6 2,-3 v -3 l -2,-4 -1,-3 2,-1 v 0 h 1 v 1 2 h 2 l 1,2 h 2 v 2 l 3,1 v -3 l 2,-1 -1,3 3,1 2,-3 -3,-2 1,-2 h 2 1 l -1,1 v 1 1 l 4,1 1,2 h 2 l 1,2 h 1 l 1,1 2,-1 v -3 l -5,-11 -2,-1 2,-1 -2,-2 h -1 l 1,-3 1,1 h 3 l 1,-3 -1,-2 -3,-1 v 3 l -1,1 -1,-1 v -1 l 1,-2 v -5 l -1,-2 v -2 l 7,2 m 73,112 v 2 l 1,2 -6,8 2,1 1,3 -4,6 h 2 l -1,4 h 3 v -3 h 1 v 2 l 3,1 v 1 l 1,-2 v 0 0 0 h 1 v 1 0 -1 0 0 0 h 1 v 1 0 l -1,2 h 1 v 1 0 l 1,1 v 2 l 1,2 -2,3 4,4 v 1 l 1,1 2,-4 2,1 h 3 l 1,-2 1,2 h 2 v 3 l -2,1 -1,3 h -2 l 2,4 -1,3 h -2 v 1 l 2,2 v 3 l -3,1 2,3 2,3 -1,2 v 2 l 2,-1 -1,1 5,4 h 3 l 2,3 v 2 l 1,1 2,-1 1,1 3,-2 2,5 -2,3 2,1 4,4 v 2 h -1 v 5 2 h -2 l -1,1 1,1 h -2 l -2,3 1,2 v 1 h -2 v 1 l -1,1 -1,-1 -1,1 2,3 v 3 l 6,-3 v -3 h 3 l -2,6 h -2 v 1 l 1,5 -2,5 -1,1 -2,-1 v -1 -1 l -3,1 -2,2 -7,4 1,3 -2,1 v 2 h -3 l -3,-1 1,2 -3,-1 -1,-6 -3,-3 h -2 v -3 l 2,-1 -1,-2 1,-2 h -1 l -1,1 -6,-3 h -2 l -2,4 -4,-2 -3,1 v -4 l -2,1 -1,-1 v 0 -1 l -1,-2 h -1 v 1 -1 h -1 -1 v 0 h -1 l -1,2 2,3 -1,2 v 2 h -2 l -2,-1 -1,1 -1,-2 -4,3 -2,-1 -1,1 v 1 l 1,1 1,2 1,2 -1,1 -3,5 h -4 -1 v -1 l -4,-6 v -3 h -2 v 2 h -3 l -1,2 3,4 -4,1 -2,3 1,2 2,-3 4,2 -5,3 1,4 -3,-1 -1,-2 -6,1 v 1 h -2 v 1 h -2 v -1 l -2,-1 -2,2 -2,-3 h -1 l -1,-1 h -2 v 0 l 2,3 h 1 v 1 l -1,1 -5,-2 -3,2 -1,4 1,3 -1,2 h -7 l -1,-2 1,-2 -4,-2 -3,4 h 1 l -2,1 -2,-4 v -2 l -3,-1 h -2 l -2,-1 h -1 l -3,-2 -4,1 -2,-2 h -1 l -2,3 3,2 -1,3 -2,1 v 2 h -1 -1 l 1,1 v 1 l -1,1 1,2 v 1 l -2,1 h -6 l -1,-1 -3,3 -2,-2 h -1 l -1,-2 -2,-1 -2,-3 1,-6 h -1 l -6,5 v -1 l -4,-3 -6,-1 3,-5 -2,-2 2,-3 -1,-1 -1,-4 -3,-7 3,-4 2,-1 v 0 l -4,-2 v -3 -2 h 1 5 l 1,-3 h 1 l 1,-4 -2,-1 -3,-4 1,-1 h 3 l -1,-1 2,-4 h -1 -1 -1 -1 -1 v 0 0 -1 l -1,-1 v 0 -2 h 1 v 1 h 1 2 l 2,1 v -1 l -2,-1 v -2 h -1 v -1 h 2 v 0 h 3 v 0 l 3,-1 -3,-5 -3,-2 1,-4 v -1 l 1,-6 v -3 l -3,-2 2,-3 2,-3 v -3 l 2,-3 1,-5 1,-1 -1,-3 3,-1 3,-3 3,-3 v -5 -2 -4 l 1,-4 6,-2 2,-1 -1,-1 -1,1 -2,-2 h -1 v -2 l 1,1 v -2 -1 l 2,-2 v -3 h -4 v -1 h 1 v -1 h -2 v -1 h -1 -1 v -4 h -1 v 0 0 l -5,-4 -1,-1 -1,-1 1,-1 v -1 l 3,-3 -1,-1 1,-3 v -3 h -2 v -1 l -1,-1 v -2 l 4,-6 h 2 l 6,5 5,5 2,-1 1,-1 3,2 1,-1 1,-3 4,-1 -1,-6 1,-1 1,3 2,2 3,1 3,1 v 0 l -1,-4 v -1 l -1,-1 2,-3 v 0 -1 h 1 l -1,-2 h 1 1 l 4,1 v 0 h 1 l 1,1 h 1 l -1,-2 h 1 l 1,1 v -1 l -1,-1 v 0 h 3 l 1,-1 2,8 3,3 h 2 l 1,1 h 1 v -2 l 1,-1 2,-1 v -1 l 3,1 3,8 3,1 -1,7 h 2 l 2,3 7,-3 -2,-6 3,-6 4,-5 3,2 5,4 h 2 l 7,1 3,-5 v -4 l 2,-1 h 2 2 l 2,2 h 2 l 2,-2 1,2 v 4 1 l 4,-2 v 2 l 3,2 v -1 h 2 l 1,2 1,3 h -1 v 2 4 l -1,1 v 2 l 3,1 6,5 m -33,-401 -13,12 h -8 l 1,3 -7,7 -17,8 v 0 -24 0 -2 l 2,-22 -1,-6 1,-4 v 0 l 1,-2 v -1 -1 -1 h -1 v -1 -1 l -1,-1 v -1 -2 0 -1 0 l -1,-1 v 0 l -1,-1 -1,-1 v -1 -1 -1 -1 -1 -1 0 -1 l -1,-1 v -1 l -1,-1 v -2 0 l -1,-1 -1,-2 v -1 -1 -2 -1 -1 -1 -1 l -1,-1 -1,-1 h -1 v 0 l -2,-1 -1,-1 -1,-2 -2,-2 -1,-2 v -1 l -1,-3 v -2 l -1,-2 1,-2 v 0 -1 -1 0 l 1,-1 v -3 -2 -1 l -1,-2 v 0 -1 -1 -1 l 1,-1 h 1 l 1,-1 v 0 l 1,-1 v -1 l 1,-1 2,-2 v -2 l 1,-1 h 1 l 1,-1 1,-1 v -1 l 1,-4 -1,-2 v -1 0 -2 l 1,-1 1,-1 v -1 -2 -2 -2 -1 -1 -1 0 0 h 1 v -1 l 1,-1 v -1 l 1,1 1,-1 1,-1 v -2 -1 l -1,-2 -1,-3 v -1 l -1,-1 v -1 l -2,-2 v -2 0 -1 -1 h -1 v -1 0 l -1,-2 v -1 l -1,-1 v 0 l 16,-1 2,3 29,6 -5,-24 4,-2 22,4 12,2 v 3 h 2 v -2 l 12,2 16,14 2,4 6,1 28,-8 h 3 8 8 l 13,13 3,12 5,7 2,-1 3,3 1,7 -5,14 3,9 -6,1 -10,-1 -8,3 v 2 l -7,11 -8,-5 -1,3 2,3 -1,4 3,2 -2,3 v 7 l 8,3 v 16 l -1,1 -15,25 v 0 l -1,1 h -2 v -1 h -1 v 2 h 1 v 1 h -2 v -2 l -8,3 h -3 l -18,-2 h -9 v -11 l -10,5 -6,3 -17,-1 -4,2 -1,5 -4,1 -4,4 -1,3 -3,3 v 0 m 0,0 v 0 l 3,-3 1,-3 4,-4 4,-1 1,-5 4,-2 17,1 6,-3 10,-5 v 11 h 9 l 18,2 h 3 l 8,-3 v 2 h 2 v -1 h -1 v -2 h 1 v 1 h 2 l 1,-1 v 0 l 15,-25 5,4 h 2 l 1,-2 3,-1 1,6 4,6 -1,2 -2,5 3,1 1,11 2,2 -2,16 1,3 1,4 2,4 h 6 l 6,7 2,10 -6,2 -2,2 -3,1 v 5 l -2,8 -11,-3 -3,3 -6,1 h -7 l -2,7 6,9 -1,1 1,2 -1,3 1,5 -2,4 -10,-3 -11,9 -1,2 v 4 l -1,2 -1,3 3,4 v 4 1 l 1,2 -2,4 -3,-1 -14,-3 h -4 l -8,8 v 1 l -1,1 -5,1 -7,2 -2,-4 -8,-1 -4,-5 -1,-3 -4,-6 -4,-2 -9,-5 -8,-8 -7,-5 -1,-2 -2,-2 2,-3 1,-7 1,-1 v 0 h -1 l -5,-1 -4,2 -2,1 -2,-1 -10,-2 v 0 l -24,-5 v 0 l 5,-14 4,-24 v 0 0 l 17,-8 7,-7 -1,-3 h 8 l 13,-12 m 54,123 1,2 5,4 3,6 -1,2 5,5 h 6 l -1,5 1,2 h 4 v 4 18 l 4,4 -12,5 -3,3 -14,13 -2,1 1,3 2,25 -5,1 v 8 l -1,2 -2,3 -6,3 -7,-2 -3,-6 -6,-3 h -7 l -4,-1 -6,-6 -5,-4 -5,4 -1,8 -2,4 -2,1 -8,3 -6,7 1,7 v 3 l -2,1 v 1 l -1,1 1,4 -1,1 -1,1 v 5 l 2,1 -11,-2 -10,4 5,7 h -4 v 2 h -1 v -1 l -3,-1 1,-2 h -2 v 2 0 2 l -2,1 v -1 h -1 v 2 l 4,-2 v -1 0 l 2,3 -1,1 4,1 v 0 h 1 v 0 h 4 l 1,-1 3,1 1,1 -1,1 -1,-2 -3,1 h -1 l -1,1 -4,-1 -3,-1 v 2 l 1,2 v 5 l -1,2 v 1 l 1,1 1,-1 v -3 l 3,1 1,2 -1,3 h -3 l -1,-1 -1,3 h 1 l 2,2 -2,1 2,1 5,11 v 3 l -2,1 -1,-1 h -1 l -1,-2 h -2 l -1,-2 -4,-1 v -1 -1 l 1,-1 h -1 -2 l -1,2 3,2 -2,3 -3,-1 1,-3 -2,1 v 3 l -3,-1 v -2 h -2 l -1,-2 h -2 v -2 -1 h -1 v 0 l -2,1 -5,-2 -8,-8 -1,-3 -1,-2 -3,-4 -3,-1 -2,-5 -3,-5 -2,-3 v 0 l -3,-1 -3,1 v 0 -1 l -2,-1 -8,1 -5,-4 -1,-2 -1,-4 -1,-2 v -1 l -4,-4 -2,1 -1,-1 3,-1 -4,-3 1,-3 -2,-2 -2,-4 -1,-1 -3,-5 -7,-1 h -1 l -5,-2 -3,-3 -3,-2 -6,-4 -4,-8 -3,-5 v 0 l -1,-2 -10,-14 h 3 l 11,-2 13,-16 4,-9 1,-2 1,-1 2,-3 v -1 h 1 v -1 l 3,-4 2,-2 3,-2 1,-1 4,-2 2,-1 1,-1 19,-8 2,-15 4,-9 7,-7 32,-16 1,-7 v 0 l 1,-1 7,-24 v 0 l 24,5 v 0 l 10,2 2,1 2,-1 4,-2 5,1 h 1 v 0 l -1,1 -1,7 -2,3 2,2 1,2 7,5 8,8 9,5 4,2 4,6 1,3 4,5 8,1 2,4 7,-2 5,-1 1,-1 v -1 m -122,191 1,3 2,4 v 3 l -2,3 1,6 -2,2 v 3 l -2,1 -2,-1 -3,4 -2,2 1,1 v 1 1 h -1 v -1 0 l -1,1 -1,-1 -5,5 -9,-1 1,5 -3,-2 -1,1 -2,-1 -2,-3 -1,1 -1,-3 -2,2 -2,3 1,1 -1,2 -1,-1 -1,3 -2,1 -10,3 -4,2 h -5 l -4,-1 -8,-4 -3,10 -5,1 -2,3 -1,2 -1,1 v 0 l -3,4 h -6 l -5,7 -9,6 -11,-5 -2,-1 h -3 -1 l -6,-1 -5,2 -3,4 -1,1 h -1 l -5,2 -6,-1 v 1 l -1,-1 -14,1 v -9 l -4,-42 -9,-42 v 0 -1 l -3,-20 -4,-29 14,-17 16,-15 12,-3 30,-14 h 5 l 10,14 1,2 v 0 l 3,5 4,8 6,4 3,2 3,3 5,2 h 1 l 7,1 3,5 1,1 2,4 2,2 -1,3 4,3 -3,1 1,1 2,-1 4,4 v 1 l 1,2 1,4 1,2 5,4 8,-1 2,1 v 1 0 l 3,-1 3,1 v 0 l 2,3 3,5 2,5 3,1 3,4 1,2 1,3 8,8 5,2 m -140,79 1,-1 3,-4 5,-2 6,1 h 1 3 l 2,1 11,5 9,-6 5,-7 h 6 l 3,-4 v 0 l 1,-1 1,-2 2,-3 5,-1 3,-10 8,4 4,1 h 5 l 4,-2 10,-3 2,-1 8,13 1,7 h -2 l -4,6 v 2 l 1,1 v 1 h 2 v 3 l -1,3 1,1 -3,3 v 1 l -1,1 1,1 1,1 5,4 v 0 0 h 1 v 4 h 1 1 v 1 h 2 v 1 h -1 v 1 h 4 v 3 l -2,2 v 1 2 l -1,-1 v 2 h 1 l 2,2 1,-1 1,1 -2,1 -6,2 -1,4 v 4 2 5 l -3,3 -3,3 -3,1 1,3 -1,1 v 0 l -1,5 -2,3 v 3 l -2,3 -2,3 3,2 v 3 l -1,6 v 1 l -1,4 3,2 3,5 -3,1 v 0 h -3 v 0 h -2 v 1 h 1 v 2 l 2,1 v 1 l -2,-1 h -2 -1 v -1 h -1 v 2 0 l 1,1 v 1 0 0 h 1 1 1 1 1 l -2,4 1,1 h -3 l -1,1 3,4 2,1 -1,4 h -1 l -1,3 h -5 -1 v 2 3 l 4,2 v 0 l -2,1 -3,4 -3,3 v 1 l -4,3 -4,-1 -1,-1 -6,-6 -1,-2 -2,-3 h -1 l -1,-1 h -2 -2 v -1 l -3,-2 -1,4 -9,8 -10,-9 -3,-7 -2,-4 h -6 v 0 h -1 v -1 l -2,-5 h -2 -1 l -1,-3 -1,-4 -2,-1 1,-2 h -3 l -1,1 1,1 -3,2 -1,-1 -2,1 -2,-6 -2,2 1,2 h -3 -3 l -3,-2 -1,-4 v 0 l -3,-3 -1,-2 v -1 h -3 l -7,-4 v 0 0 0 l -18,-2 7,-34 5,-22 -1,-30 14,-1 1,1 v -1 l 6,1 5,-2 h 1 m 101,224 3,-2 4,2 1,-1 1,2 h 4 l -1,-2 1,-1 h 1 3 2 l -1,-3 v -1 l -1,-1 v -3 l 4,-2 1,1 h 2 l 5,-1 v -1 l -1,-1 v -3 l 4,-4 -1,-1 h 2 2 l 1,1 4,-4 1,-4 -1,-1 2,-1 h 3 l 1,2 1,3 v 2 l 2,-1 1,-2 1,-1 v -1 h 2 2 v 2 h 2 v -5 l 3,1 2,-1 1,-3 -1,-5 -1,-6 v -2 l -3,-1 3,-3 3,-1 h 2 l -4,-7 -1,-3 1,-4 3,-2 5,2 1,-1 v -1 h -1 l -2,-3 v 0 h 2 l 1,1 h 1 l 2,3 2,-2 2,1 v 1 h 2 v -1 h 2 v -1 l 6,-1 1,2 3,1 -1,-4 5,-3 -4,-2 -2,3 -1,-2 2,-3 4,-1 -3,-4 1,-2 h 3 v -2 h 2 v 3 l 4,6 v 1 h 1 4 l 3,-5 1,-1 -1,-2 -1,-2 -1,-1 v -1 l 1,-1 2,1 4,-3 1,2 1,-1 2,1 h 2 v -2 l 1,-2 -2,-3 1,-2 h 1 v 0 h 1 1 v 1 -1 h 1 l 1,2 v 1 0 l 1,1 2,-1 v 4 l 3,-1 4,2 2,-4 h 2 l 6,3 1,-1 h 1 l -1,2 1,2 -2,1 v 3 h 2 l 3,3 1,6 3,1 -1,-2 3,1 h 3 v -2 l 2,-1 -1,-3 7,-4 2,-2 3,-1 v 1 1 l 2,1 1,1 2,-1 2,1 v 2 l 1,2 2,2 1,3 1,2 v 3 l 2,4 v 3 h -2 l -2,-2 -1,-1 -1,1 v 1 2 1 1 l 1,1 1,2 -2,2 5,11 v 1 0 5 1 l 1,15 v 8 0 h -4 l -2,1 -7,3 -7,1 -11,12 -6,1 -6,2 -3,4 -22,5 h -3 -6 l -17,-2 -13,2 -8,3 -17,8 -9,2 -7,1 -49,12 -28,1 -11,2 v 0 0 l 2,-7 5,-12 3,-8 v -2 l 2,1 5,-1 3,1 2,-4 h 1 v 0 l 1,1 v 0 h 1 1 v 1 h 3 v -1 l 1,-1 h 1 l 1,-1 2,-2 h 1 l 2,1 2,-2 -1,-1 -1,-1 v 0 0 h 1 l 2,1 1,-1 v -1 l 2,-4 2,3 1,-1 h 1 v 0 h 2 v 0 -1 m -12,4 v 0 0 l 1,1 1,1 -2,2 -2,-1 h -1 l -2,2 -1,1 h -1 l -1,1 v 1 h -3 v -1 h -1 -1 v 0 l -1,-1 v 0 h -1 l -2,4 -3,-1 -5,1 -2,-1 v 2 l -3,8 -5,12 -2,7 v 0 0 h -2 l -14,10 h -49 -3 l -2,-1 h -1 l -14,-3 v 0 l 4,-21 v 0 l 3,-7 1,-3 2,-4 3,-7 -6,-6 -4,-2 -1,-14 v -1 l -3,-3 -2,-2 2,-6 4,-13 v 0 l 2,-7 1,-11 2,-4 1,-5 -9,-20 -3,-7 -1,-5 -1,-1 v 0 l -21,-11 20,-23 1,-1 18,2 v 0 0 0 l 7,4 h 3 v 1 l 1,2 3,3 v 0 l 1,4 3,2 h 3 3 l -1,-2 2,-2 2,6 2,-1 1,1 3,-2 -1,-1 1,-1 h 3 l -1,2 2,1 1,4 1,3 h 1 2 l 2,5 v 1 h 1 v 0 h 6 l 2,4 3,7 10,9 9,-8 1,-4 3,2 v 1 h 2 2 l 1,1 h 1 l 2,3 1,2 6,6 1,1 4,1 4,-3 v -1 l 3,-3 3,7 1,4 1,1 -2,3 2,2 -3,5 6,1 4,3 v 1 l 6,-5 h 1 l -1,6 2,3 2,1 1,2 h 1 l 2,2 3,-3 1,1 h 6 l 2,-1 v -1 l -1,-2 1,-1 v -1 l -1,-1 h 1 1 v -2 l 2,-1 1,-3 -3,-2 2,-3 h 1 l 2,2 4,-1 3,2 h 1 l 2,1 h 2 l 3,1 v 2 l 2,4 2,-1 h -1 l 3,-4 4,2 -1,2 1,2 h 7 l 1,-2 4,7 h -2 l -3,1 -3,3 3,1 v 2 l 1,6 1,5 -1,3 -2,1 -3,-1 v 5 h -2 v -2 h -2 -2 v 1 l -1,1 -1,2 -2,1 v -2 l -1,-3 -1,-2 h -3 l -2,1 1,1 -1,4 -4,4 -1,-1 h -2 -2 l 1,1 -4,4 v 3 l 1,1 v 1 l -5,1 h -2 l -1,-1 -4,2 v 3 l 1,1 v 1 l 1,3 h -2 -3 -1 l -1,1 1,2 h -4 l -1,-2 -1,1 -4,-2 -3,2 -2,1 v 0 h -1 l -1,1 -2,-3 -2,4 v 1 l -1,1 -2,-1 h -1 m -119,-45 v 0 l -4,13 -2,6 2,2 3,3 v 1 l 1,14 4,2 6,6 -3,7 -2,4 -1,3 -3,7 v 0 l -4,21 v 0 l -23,-6 -22,6 h -3 l -3,-1 -15,-16 -3,-1 -13,-23 -27,-48 2,-5 2,-7 v 0 l 2,-8 h 1 v 0 l 6,-26 h 1 v 0 l 18,-6 h 2 l 3,-1 22,-1 24,-17 v 0 l 21,11 v 0 l 1,1 1,5 3,7 9,20 -1,5 -2,4 -1,11 -2,7 m 370,-14 -1,2 1,3 -2,6 -3,2 2,4 -15,19 -9,3 h -4 -21 v 0 -8 l -1,-15 v -1 -5 0 -1 l -5,-11 2,-2 -1,-2 -1,-1 v -1 -1 -2 -1 l 1,-1 1,1 2,2 h 2 v -3 l -2,-4 v -3 l -1,-2 -1,-3 -2,-2 1,-1 2,-2 5,-1 5,-3 3,-1 -1,-1 v 0 -2 h 3 v 0 -1 -1 l 5,-2 1,2 2,2 6,1 3,2 2,3 v 0 l 1,3 3,2 h 3 l 2,-1 4,1 h 1 v 0 l 1,1 v 0 l 1,-2 -1,-2 h 2 v -1 h 1 1 l -1,1 h 2 2 l 1,-1 1,-1 -1,-2 2,-3 v 1 h 1 l -1,2 v 1 1 h 1 v -1 l 1,-4 h 4 v 0 -1 h 1 1 v 1 0 0 1 l 3,-1 h 1 l 4,2 h 2 l 3,2 -2,2 h 1 1 v 0 0 h 1 v 0 0 0 0 1 l -1,1 h -1 v 1 1 h -1 -1 -1 v 0 l -1,1 v 2 l -1,2 v 0 h -1 l -1,1 v 0 l -1,1 v 1 l -1,1 -2,2 -1,1 -1,1 v 1 l -6,6 -1,1 v 1 l -1,1 v 1 1 1 h -1 l -1,1 h -1 v 0 m 66,-74 h -1 l -1,1 v 1 0 h -1 v 1 l -1,2 -1,1 h -1 -1 -1 l -1,1 -1,1 h -1 v 1 1 l -1,1 -1,2 -1,1 v 0 l -1,1 -1,1 -1,2 v 1 2 l -1,1 v 2 0 l -1,2 v 1 l -1,1 h -1 v -1 h -1 -1 l -1,1 h -1 -1 -1 l -1,2 -1,1 v 0 h -1 v 0 l -1,1 v 1 l -1,1 v 0 h -1 v 0 l -1,-1 -1,-1 h 1 l -1,-1 -2,-2 v -1 l -1,-1 v 0 l -1,-1 v 0 l 1,-1 h -1 v 0 0 0 0 0 h 1 v 0 l 1,1 v -1 0 h 1 v 0 0 -1 h 1 v 0 l 1,-2 1,-2 v -1 0 0 0 0 h 1 l 3,1 1,2 h 1 l 1,-2 1,2 1,-1 1,1 2,-1 2,1 v -1 0 h -1 v -1 0 0 l 1,-1 h 1 v -1 0 -1 0 -1 0 h -1 v -1 h 1 v -1 h 1 v -1 l 1,-1 v 0 0 -5 l 1,-1 v 0 1 0 l 2,-1 v 0 0 -1 h -1 v 0 l 2,-1 h 2 v 0 l 1,1 v 0 h 3 l 2,-3 3,-2 v 0 h 1 m 39,-285 v 1 0 l 2,2 v 0 l 1,1 v 0 l 1,1 1,1 v 0 l 6,6 2,2 v 2 l 1,1 3,2 h 1 v 0 l 1,1 1,1 1,1 v 1 l 2,1 v 1 l 2,3 1,2 h 1 v 0 h 1 v 0 l 3,1 1,1 h 1 l 1,1 h 2 l 5,2 1,1 1,1 v 0 l 1,2 h 1 v 0 l 1,1 h 2 l 1,1 v 0 1 l 1,2 h 1 v 1 h 1 l 1,1 h 1 1 l 1,1 1,1 h 1 l 1,2 1,1 v 0 l 2,1 1,1 1,1 v 0 l 1,1 -1,1 1,1 1,1 v 1 1 2 1 1 0 l 1,2 2,2 v 1 h 2 l 1,1 v 0 l 1,2 v 0 h 1 l 1,1 v 0 l 2,1 v 1 0 1 1 h 1 v 0 l 1,1 h 1 l 1,3 v 0 l 1,1 1,2 v 1 0 l 1,2 v 1 1 h -1 v 1 1 l -3,5 v 1 0 l -1,2 v 1 1 1 0 0 h -1 v 1 0 1 h -1 v 1 1 l -1,4 v 2 1 1 0 2 l -1,1 v 0 1 h -1 v 3 h -1 v 1 1 l -2,6 v 0 h -1 v 2 1 l -1,1 v 1 h -1 v 1 h -1 v 4 l -1,1 -1,1 v 0 l -1,1 -1,1 v 0 l -1,1 -1,1 -1,1 v 1 l -1,2 -1,1 v 0 l -2,3 v 1 h 1 v 0 l -1,1 v 1 1 h -1 l -1,-1 v 0 l -1,1 -1,1 -1,1 v 0 1 0 h -1 l -1,1 v 1 1 0 l -1,1 v 0 l -1,1 -2,3 h -2 -1 v 1 l -1,1 -1,2 h 1 v 1 l -1,1 v 2 l -1,1 v 0 -1 h -1 v 0 0 h -1 v 1 0 0 h -1 v 1 1 l -1,1 v 0 0 l -1,1 h -1 -1 l 1,1 1,-1 v 4 l -1,1 v 1 l -1,1 -1,1 -1,1 v 0 1 l -1,1 v 1 l -2,2 v 0 h -1 v 1 l -1,1 v 1 0 l 1,1 -1,1 v 0 h -1 v 0 l -1,1 v 0 l -1,1 -1,2 v 0 l -1,1 v 0 1 0 l -1,1 -1,2 -1,1 v 0 0 h -1 v 0 l -1,-1 -2,2 -18,10 -9,5 v -1 l 3,-3 h 1 l 3,-4 v -3 l -1,-4 1,-1 -5,-5 v -4 l 3,-3 -6,-6 -2,-1 -3,-3 -2,-10 -1,-5 1,-4 -2,-1 -5,-9 -1,-7 -2,-1 -2,-1 -1,1 h -2 v 2 l -2,-1 -2,-1 1,-1 -2,-1 2,-7 -1,-1 v 1 l -5,-3 1,-2 -4,-3 1,-2 -5,-2 -4,-4 -2,-4 -1,-1 v 0 -1 l -2,-1 -2,-3 -1,-2 v -2 l 2,-1 h 2 l 1,-2 v -3 h -1 l -1,-2 1,-1 -3,-4 v -1 h -2 l -6,-5 h -1 l -1,-1 -2,-1 v -1 l -3,-1 2,-2 1,1 3,-3 -3,-4 -2,-4 v 0 -1 0 -1 h -1 v 0 -1 0 -1 0 0 0 0 -1 h -1 v 0 l 1,-1 -3,-9 1,-2 v -1 l 1,-2 -1,-1 h 1 1 1 v -1 h 2 1 l -1,-2 v -2 h -1 v -2 l -1,-5 h -1 -1 -2 v 6 h -3 l -1,-6 h -2 l -2,-1 v 1 l -2,-1 -3,-2 -2,-4 2,1 h 1 v -1 -1 l 1,-2 v -1 l 1,-2 -1,-1 -2,-2 -1,-1 -1,-2 v -3 l 1,-2 -1,-2 6,-12 3,2 1,3 1,1 5,-9 5,-11 -1,-1 1,-1 4,-1 17,3 11,-1 h 2 l 7,-1 12,-2 6,-2 3,16 3,3 4,-5 h 5 v 0 h 2 m 17,210 -1,1 -1,1 v 0 l -1,1 v 1 l -1,1 v 1 1 2 h -1 v 1 l -2,2 v 0 l -2,2 -1,1 v 0 l -1,1 -1,1 v 0 l -1,2 v 0 l -1,1 v 1 0 h -1 v 0 l -1,1 v 1 1 l -1,1 v 0 l -1,1 v 0 1 l -1,2 h -1 v 3 0 0 l -1,1 v 1 h -1 l -1,2 h -1 v 1 l -1,1 h 1 l -1,1 v 1 h -1 v 1 h -1 l -4,1 h -1 v 1 0 2 1 h -1 l -2,3 v 1 l -1,1 -1,1 -1,1 v 0 l -1,1 v 0 0 l -4,-2 -2,-2 -1,-1 -1,-6 v -3 l 1,-5 2,-4 5,-6 8,-4 v -5 l 9,-5 18,-10 2,-2 1,1 v 0 h 1 m 22,-33 -3,3 -1,2 -1,2 v 0 1 -4 l -1,1 -1,-1 h 1 1 l 1,-1 v 0 0 l 1,-1 v -1 -1 h 1 v 0 0 -1 h 1 v 0 0 h 1 v 1"
       id="path806" />
    <path
       style="fill:#cd87de;stroke-width:0.87861"
       d="m 311.14884,1085.382 c -2.67468,-2.5066 -2.9136,-3.13 -2.52411,-6.5856 0.50936,-4.5189 -0.55657,-4.9093 -4.45296,-1.6307 l -2.59802,2.1861 -2.22068,-1.7468 c -1.22137,-0.9607 -2.98201,-1.7468 -3.91253,-1.7468 -2.4911,0 -2.95885,-0.8845 -1.53942,-2.911 0.89844,-1.2827 0.99604,-2.1219 0.33888,-2.9137 -0.6101,-0.7351 -0.63345,-1.6295 -0.0689,-2.6384 0.46975,-0.8394 0.53658,-2.1451 0.14851,-2.9015 -0.38808,-0.7564 -1.50754,-3.4449 -2.48769,-5.9746 l -1.78209,-4.5994 2.64096,-2.6409 2.64096,-2.641 -2.25589,-1.0278 c -3.21266,-1.4638 -3.0103,-4.2603 0.30827,-4.2603 1.9636,0 2.99253,-0.6931 4.39306,-2.9592 2.29847,-3.719 2.32038,-5.9758 0.0717,-7.3802 -2.20589,-1.3776 -2.27081,-2.8397 -0.1261,-2.8397 1.64013,0 1.68078,-0.176 1.82671,-7.9075 0.0228,-1.2081 -0.35051,-2.3283 -0.82958,-2.4894 -1.9279,-0.6482 -0.67501,-1.7104 2.64341,-2.2411 1.93294,-0.309 3.51444,-0.7746 3.51444,-1.0345 0,-1.0869 -2.62635,-5.4339 -3.94337,-6.5269 -1.19239,-0.9896 -1.32607,-2.2972 -0.82365,-8.0568 0.43284,-4.96205 0.2949,-7.24275 -0.49568,-8.19534 -0.88622,-1.06782 -0.81315,-1.75075 0.38258,-3.57567 1.92326,-2.93527 5.89413,-15.44302 5.35348,-16.86282 -0.23002,-0.60404 0.0822,-1.09826 0.69381,-1.09826 0.61162,0 2.57608,-1.49933 4.36548,-3.33184 2.96582,-3.03727 3.25345,-3.76548 3.25345,-8.23697 0,-8.80189 0.55852,-10.07846 4.94714,-11.3072 2.13632,-0.59813 4.07818,-1.40133 4.31523,-1.78489 0.46407,-0.75087 -1.23582,-2.10126 -2.6728,-2.12326 -1.253,-0.0192 -1.65075,-3.98581 -0.51369,-5.12287 1.43552,-1.43552 1.17549,-4.9946 -0.36492,-4.9946 -0.72485,0 -1.31791,-0.32857 -1.31791,-0.73014 0,-0.40158 -0.98844,-1.25914 -2.19653,-1.90569 -1.20809,-0.64655 -2.20496,-1.80064 -2.21528,-2.56465 -0.0103,-0.764 -1.59182,-2.50202 -3.51444,-3.86226 -3.8679,-2.7365 -4.18173,-3.65929 -2.04675,-6.01841 1.98496,-2.19336 2.65077,-10.39855 0.8438,-10.39855 -0.72073,0 -1.55923,-0.40258 -1.86333,-0.89463 -0.61748,-0.9991 2.79999,-7.01286 3.98523,-7.01286 0.41627,0 3.05427,2.12699 5.8622,4.72664 4.79993,4.44389 5.36196,4.71972 9.39514,4.61096 3.58959,-0.0968 4.40907,-0.43808 5.02045,-2.09081 0.42916,-1.16014 1.4674,-1.97513 2.51618,-1.97513 1.16976,0 1.78553,-0.5769 1.78553,-1.67281 0,-1.63976 0.0889,-1.63902 4.50176,0.0377 2.47597,0.94079 4.63034,1.58196 4.7875,1.4248 0.15715,-0.15715 -0.14044,-1.96469 -0.66131,-4.01675 -0.79275,-3.12318 -0.71355,-3.98902 0.48609,-5.31461 0.78821,-0.87097 1.13573,-1.91103 0.77225,-2.31123 -0.36349,-0.40021 0.0656,-0.46611 0.9535,-0.14645 0.8879,0.31965 3.16131,0.82855 5.05201,1.13089 2.81502,0.45014 3.43763,0.29066 3.43763,-0.88051 0,-2.63622 1.6711,-1.46485 2.24053,1.57052 0.68739,3.66406 3.48976,6.44819 7.24677,7.19959 2.22149,0.4443 2.81324,0.26884 2.81324,-0.83418 0,-0.76825 0.79733,-1.82354 1.77184,-2.34508 1.58863,-0.85021 1.95852,-0.51273 3.57726,3.26387 0.99298,2.31668 2.39893,4.54438 3.12433,4.95047 0.99335,0.55607 1.17566,1.58625 0.73857,4.1734 -0.46776,2.76866 -0.31569,3.43506 0.78388,3.43506 0.75032,0 1.7753,0.7681 2.27773,1.70688 0.90088,1.68333 0.97463,1.68147 5.34487,-0.13472 3.35649,-1.39489 4.29643,-2.18188 3.87502,-3.24445 -1.68686,-4.25339 -1.37345,-6.73847 1.36816,-10.84839 2.96079,-4.43849 2.91645,-4.43519 7.8897,-0.5884 2.1745,1.68196 4.4438,2.4986 7.74829,2.78832 4.18694,0.36709 4.81598,0.19172 6.04608,-1.68565 0.75512,-1.15245 1.63215,-3.37043 1.94896,-4.92884 0.69007,-3.39447 3.67271,-4.26188 6.34352,-1.84482 1.42752,1.29188 2.03576,1.38067 3.442,0.50247 1.57196,-0.98171 1.70807,-0.81668 1.70807,2.0711 0,2.53818 0.30302,3.08647 1.58572,2.86916 0.87215,-0.14775 2.66251,0.43689 3.97857,1.29921 1.31606,0.86231 2.77704,1.33039 3.24663,1.04017 0.72898,-0.45054 1.0342,0.18068 1.06952,2.21186 0.004,0.24162 -0.24501,2.72332 -0.55379,5.51488 -0.48185,4.35602 -0.34199,5.15649 0.98657,5.64629 3.09047,1.13937 7.1009,4.78297 7.64334,6.9442 0.41831,1.66673 -0.10218,3.04215 -2.1111,5.57863 -2.66784,3.36841 -3.35591,5.31014 -1.8817,5.31014 1.85781,0 1.6782,2.98368 -0.36019,5.98344 -1.20947,1.77989 -1.79974,3.36926 -1.31173,3.53194 0.48802,0.16267 0.88731,1.30179 0.88731,2.53137 0,2.11203 0.19214,2.20487 3.47623,1.67973 2.83742,-0.45372 3.78981,-0.21928 5.18264,1.27574 2.05102,2.20151 2.94287,6.11789 1.7278,7.58727 -0.62247,0.75274 -0.022,2.09609 2.05477,4.59686 3.28818,3.95953 3.92064,4.237 4.62133,2.02744 0.36953,-1.16529 1.35539,-1.50561 4.07171,-1.40559 4.35576,0.16039 4.98722,0.66944 3.1319,2.52477 -0.78239,0.78238 -1.42252,1.78965 -1.42252,2.23836 0,0.44872 -0.60321,0.81586 -1.34047,0.81586 -1.17234,0 -1.18746,0.30306 -0.12056,2.41617 1.37518,2.72365 1.04399,4.61271 -0.80871,4.61271 -1.62291,0 -1.58799,1.25715 0.0732,2.63583 1.67651,1.39138 1.70784,3.51444 0.0518,3.51444 -2.14101,0 -2.20996,1.26634 -0.23851,4.38004 1.03943,1.64165 1.79121,3.99651 1.67063,5.23301 -0.16862,1.72918 0.52588,2.75526 3.0084,4.44471 1.7752,1.20809 4.04614,2.40863 5.04655,2.66793 1.0004,0.2592 2.05211,1.4454 2.33714,2.6358 0.44903,1.8754 1.01222,2.1645 4.21719,2.1645 4.04907,0 5.66177,1.9997 3.6082,4.4741 -0.90625,1.092 -0.58785,1.7348 1.87963,3.7947 2.61403,2.1823 2.93942,2.9134 2.71012,6.0891 -0.1994,2.7618 -0.98874,4.3372 -3.36244,6.7109 -1.70602,1.706 -2.91217,3.5962 -2.68034,4.2003 0.23183,0.6041 -0.122,1.6062 -0.78631,2.2267 -0.6643,0.6206 -1.20783,0.8666 -1.20783,0.5468 0,-0.3199 -0.58579,-0.095 -1.30176,0.4988 -1.14995,0.9544 -1.14995,1.2971 0,2.9389 0.71597,1.0222 1.30176,2.7729 1.30176,3.8905 0,1.8002 0.21318,1.9179 1.86896,1.0317 1.45778,-0.7802 2.03471,-0.7386 2.62238,0.1888 0.87638,1.383 1.02034,6.1307 0.24702,8.146 -0.67136,1.7495 -2.10252,1.8172 -2.10252,0.099 0,-1.714 -1.75612,-1.0341 -8.60416,3.3311 -3.63612,2.3177 -5.36656,3.9476 -5.05453,4.7608 0.5777,1.5053 -1.49583,3.7417 -3.46917,3.7417 -2.42316,0 -4.83736,-1.7304 -4.83736,-3.4672 0,-0.9065 -1.25535,-2.7045 -2.78966,-3.9956 -2.11333,-1.7782 -2.5056,-2.5229 -1.61795,-3.0715 0.64444,-0.3983 1.20788,-1.9458 1.25209,-3.439 0.0702,-2.371 -0.19782,-2.6948 -2.11614,-2.5569 -1.20809,0.087 -3.06013,-0.3097 -4.11564,-0.8813 -2.63754,-1.4283 -5.31454,-1.3023 -6.20683,0.2921 -1.06938,1.9109 -6.37112,0.78 -6.37112,-1.3589 0,-1.094 -0.49254,-1.4364 -1.63623,-1.1373 -1.13925,0.2979 -1.78623,-0.1458 -2.13012,-1.4608 -0.40159,-1.5357 -1.03997,-1.8363 -3.41578,-1.6084 -2.9037,0.2785 -2.92025,0.3063 -2.65824,4.4537 0.27569,4.3638 -0.30117,4.9205 -3.38759,3.2687 -1.25382,-0.6711 -2.22824,-0.5524 -3.77218,0.4592 -1.14493,0.7502 -2.72712,1.1163 -3.516,0.8136 -2.16026,-0.829 -2.8282,2.0619 -1.13764,4.9237 1.35865,2.3001 1.35291,2.6365 -0.0881,5.1682 -2.09017,3.6723 -4.81903,3.5811 -7.18063,-0.24 -1.00589,-1.6276 -1.82888,-3.8022 -1.82888,-4.8324 0,-1.4123 -0.54042,-1.8732 -2.19653,-1.8732 -1.20808,0 -2.19652,0.3493 -2.19652,0.7762 0,0.4268 -0.79075,0.9829 -1.75722,1.2356 -1.84205,0.4817 -2.44269,3.6112 -0.87861,4.5778 1.30807,0.8084 1.06194,2.1965 -0.38949,2.1965 -0.69745,0 -1.87728,0.8698 -2.62185,1.9328 -1.20089,1.7145 -1.20651,2.1575 -0.0498,3.9228 0.71718,1.0946 1.29193,2.6959 1.27723,3.5586 -0.0253,1.4876 -0.0729,1.489 -0.92402,0.028 -0.72384,-1.2428 -1.61033,-1.4318 -4.58598,-0.9778 -2.02878,0.3096 -4.29196,0.8706 -5.02929,1.2466 -0.73734,0.376 -1.99594,0.3169 -2.79691,-0.1314 -0.94548,-0.5291 -1.66347,-0.4798 -2.04691,0.1407 -0.38302,0.6197 -1.18772,0.3147 -2.28934,-0.8678 -0.9343,-1.0028 -2.67175,-1.8233 -3.86102,-1.8233 -2.1901,0 -2.89265,1.2021 -1.28369,2.1965 1.79321,1.1083 0.86168,2.1466 -1.21683,1.3564 -1.61939,-0.6157 -2.51763,-0.4034 -3.95375,0.9346 -1.79504,1.6723 -2.23071,3.4202 -1.89267,7.5934 0.13946,1.7217 -0.25815,1.9769 -3.08036,1.9769 -2.81863,0 -3.18007,-0.2311 -2.77636,-1.7748 0.34808,-1.3311 -0.20534,-2.121 -2.21347,-3.1595 -2.61008,-1.3497 -2.72805,-1.3216 -4.67834,1.1159 l -2.00074,2.5005 -0.65095,-2.6359 c -0.73297,-2.9679 -1.77683,-3.9182 -4.33414,-3.9457 -0.96647,-0.01 -2.94334,-0.6632 -4.39305,-1.4507 -1.44971,-0.7874 -3.89105,-1.3677 -5.4252,-1.2894 -1.53416,0.078 -3.04015,-0.2634 -3.34664,-0.7593 -0.90154,-1.4587 -1.90967,-1.0528 -3.53104,1.4217 -1.39362,2.127 -1.40216,2.3907 -0.10105,3.1188 0.78172,0.4375 1.4213,1.1711 1.4213,1.6304 0,1.132 -3.28805,4.3494 -4.4449,4.3494 -0.5118,0 -0.6304,0.4855 -0.26358,1.079 0.36678,0.5935 0.66358,2.0761 0.65956,3.2948 -0.007,2.0464 -0.31741,2.2164 -4.06498,2.2245 -2.23172,0 -4.35027,0.3013 -4.70789,0.6589 -1.1866,1.1866 -2.52372,0.6704 -5.5082,-2.1265 z"
       id="Yleinen" visibility="hidden" class="prevalence-area"
       transform="translate(3000,-7800)" />
    <path
       style="fill:#8787de;stroke-width:1.12654"
       d="m 110.57295,1176.5961 c -10.16547,-10.0023 -10.767081,-10.9012 -29.444007,-43.9949 -15.830063,-28.0493 -18.896128,-34.204 -18.062808,-36.2587 2.091396,-5.1568 7.929432,-25.3488 9.712342,-33.592 l 1.857135,-8.5865 11.404929,-3.489 c 7.959547,-2.435 14.960999,-3.7184 23.176259,-4.2481 l 11.77132,-0.7591 11.48729,-8.1773 11.4873,-8.1773 10.81913,5.5786 c 7.82183,4.0331 10.81913,6.1615 10.81913,7.6827 0,1.1573 2.80737,8.3558 6.2386,15.9966 6.19199,13.7886 6.22645,13.926 4.61208,18.3985 -0.89459,2.4784 -1.89459,7.2943 -2.22222,10.7021 -0.32764,3.4078 -2.38175,11.7668 -4.56469,18.5757 l -3.96897,12.3797 2.62931,2.8286 c 1.99073,2.1415 2.77966,4.6001 3.24839,10.123 0.34049,4.012 1.18247,7.4824 1.87107,7.7119 0.68858,0.2295 2.79287,1.7139 4.67619,3.2986 3.80927,3.2053 3.84214,2.8082 -1.23607,14.9278 -1.9471,4.647 -4.26705,11.9976 -5.15544,16.3348 -0.88839,4.3372 -1.8666,8.9733 -2.1738,10.3025 l -0.55855,2.4168 -10.99188,-2.7993 -10.99188,-2.7994 -10.90976,2.9173 c -6.00036,1.6045 -11.86446,2.9173 -13.03132,2.9173 -1.16687,0 -6.79145,-4.5949 -12.49908,-10.2109 z"
       id="Harvinainen" visibility="hidden" class="prevalence-area"
       transform="translate(3000,-7800)" />
    <path
       style="fill:#cdde87;stroke-width:1.12654"
       d="m 641.67719,940.86617 c 0.18037,-4.88938 -0.25536,-6.34149 -2.67627,-8.91883 -2.86479,-3.04989 -2.87157,-3.10095 -0.72811,-5.48314 2.15967,-2.40018 2.15312,-2.41407 -3.5955,-7.62353 -5.28824,-4.79225 -5.87278,-5.83236 -7.14917,-12.72104 -0.76452,-4.12615 -1.05367,-8.56189 -0.64255,-9.8572 0.42649,-1.34377 0.25151,-2.35513 -0.40748,-2.35513 -1.78354,0 -6.88263,-9.41537 -6.88263,-12.70863 0,-3.48782 -3.89139,-6.62194 -7.24795,-5.83751 -3.8242,0.89372 -5.41966,-0.85969 -4.05302,-4.45423 1.27058,-3.3419 0.73837,-5.16306 -1.50884,-5.16306 -1.45651,0 -6.34132,-5.90008 -6.34132,-7.65932 0,-0.54523 -1.19922,-1.53773 -2.66493,-2.20555 -1.46571,-0.66783 -4.90958,-4.17105 -7.65305,-7.78495 -7.16322,-9.43592 -7.09432,-9.24733 -3.83152,-10.48784 2.04337,-0.77689 2.88413,-1.92567 2.88413,-3.94077 0,-1.56432 -0.53686,-2.84422 -1.19302,-2.84422 -0.65617,0 -0.88254,-0.5024 -0.50305,-1.11641 0.7499,-1.21335 -2.76877,-6.67635 -4.33727,-6.73395 -0.53015,-0.0195 -2.41245,-1.25427 -4.18289,-2.744 -1.77044,-1.48972 -3.87138,-2.92759 -4.66877,-3.19526 -1.17596,-0.39476 -1.16838,-1.01511 0.0401,-3.28442 1.29639,-2.43434 1.19976,-3.29966 -0.74399,-6.66193 -2.28529,-3.95306 -5.81535,-16.32899 -5.81535,-20.38783 0,-1.47986 1.17433,-2.7032 3.4021,-3.54409 1.87116,-0.70629 3.21786,-1.80287 2.99267,-2.43686 -0.22519,-0.63398 -1.10639,-3.56067 -1.95824,-6.50375 -1.26418,-4.3677 -2.02116,-5.35105 -4.1192,-5.35105 -1.99074,0 -2.5704,0.63513 -2.5704,2.81634 0,1.54899 -0.50695,2.81634 -1.12654,2.81634 -0.6196,0 -1.12654,-1.21093 -1.12654,-2.69097 0,-2.17828 -0.74367,-2.83048 -3.90336,-3.42324 -2.14685,-0.40275 -4.13445,-1.10619 -4.4169,-1.56319 -0.28244,-0.45701 0.0543,-2.95852 0.74844,-5.55891 1.14085,-4.2742 1.02539,-4.97983 -1.20294,-7.35177 -2.94663,-3.13656 -2.79848,-9.1658 0.38683,-15.74274 2.40693,-4.96974 3.53955,-5.27132 5.03409,-1.34039 0.62457,1.64274 1.62533,2.55733 2.32505,2.12488 0.67568,-0.4176 3.47567,-5.37629 6.22219,-11.01932 2.74652,-5.64304 5.38339,-10.64978 5.8597,-11.12609 0.47632,-0.47632 4.9012,-0.16248 9.83308,0.69742 9.90372,1.72677 22.93537,1.00471 37.78725,-2.0937 4.59554,-0.95873 8.41696,-1.74356 8.49204,-1.74407 0.0751,-5e-4 0.47537,2.55364 0.88955,5.67587 1.44344,10.88116 4.75217,15.05389 8.12196,10.24283 2.96492,-4.23302 6.99215,-3.08651 14.19497,4.04115 3.58064,3.54328 6.51025,7.10897 6.51025,7.92376 0,0.81478 1.64756,2.45711 3.66125,3.64962 2.01368,1.19251 4.90102,4.18387 6.4163,6.64747 1.51529,2.46359 3.54305,4.72317 4.50615,5.02127 6.0621,1.87637 14.14167,5.40283 15.69653,6.85101 1.00435,0.93543 3.71022,3.48994 6.01305,5.67668 2.30282,2.18674 4.67951,3.9759 5.28152,3.9759 1.7222,0 7.99024,6.13022 9.76418,9.54949 0.88455,1.70498 1.60827,4.34911 1.60827,5.87585 0,2.6831 7.86673,11.61155 10.23076,11.61155 0.56904,0 1.03462,0.73522 1.03462,1.63383 0,0.8986 0.65589,2.03922 1.45752,2.53471 0.80165,0.49548 2.28575,2.65261 3.29801,4.79361 1.67949,3.55225 1.68627,4.24201 0.0774,7.88577 -3.56756,8.07995 -5.95946,16.2822 -5.95946,20.43619 0,2.34564 -0.456,4.54663 -1.01334,4.89108 -0.55735,0.34445 -1.62179,3.16255 -2.36544,6.26244 -0.74365,3.09988 -1.80847,5.63616 -2.36627,5.63616 -0.55779,0 -1.01417,0.98396 -1.01417,2.18658 0,1.20263 -0.50695,2.4999 -1.12654,2.88283 -0.6196,0.38294 -1.12654,1.49204 -1.12654,2.46467 0,0.97263 -1.64756,3.64156 -3.66125,5.93097 -2.01368,2.2894 -5.05429,6.40638 -6.75692,9.14883 -3.97812,6.40765 -10.87282,14.99135 -12.522,15.58951 -1.93157,0.70058 -4.02056,3.79386 -4.0609,6.01319 -0.0197,1.0843 -0.80879,1.97144 -1.75351,1.97144 -0.94473,0 -2.19954,1.26736 -2.78846,2.81635 -0.58892,1.54899 -1.94513,2.81634 -3.01377,2.81634 -1.51122,0 -1.64258,0.30041 -0.59115,1.35185 2.23912,2.23911 1.54796,4.61884 -2.67785,9.2202 -2.21041,2.40685 -4.09016,5.32177 -4.17723,6.47758 -0.0871,1.15583 -0.54223,2.1015 -1.01146,2.1015 -0.46925,0 -2.00893,2.02386 -3.42152,4.49748 -1.41259,2.4736 -3.2505,4.50137 -4.08425,4.50615 -0.83375,0.005 -2.86151,0.93542 -4.50615,2.06811 -1.64464,1.13268 -6.30814,3.88753 -10.36335,6.12189 l -7.3731,4.06246 z"
       id="Superharvinainen" visibility="hidden" class="prevalence-area"
       transform="translate(3000,-7800)" />
  </g>
</svg>
