<?xml version="1.0" encoding="UTF-8" standalone="no"?>
<svg
   width="1448"
   height="477"
   viewBox="0 0 383.11667 126.20625"
   version="1.1"
   id="svg952"
   xmlns="http://www.w3.org/2000/svg"
   xmlns:svg="http://www.w3.org/2000/svg">
  <defs
     id="defs956" />
  <g
     style="fill:#a7bbcf"
     transform="matrix(0.99984882,0,0,1.0008867,-20.933812,-28.970682)"
     id="g903">
    <path
       d="m 376.32227,381.92188 a 282.65265,85.123157 0 0 0 -124.58985,8.83398 c -0.31892,0.67462 -0.63638,1.35682 -0.95508,2.0293 6.90205,2.26106 13.53445,5.306 19.87305,8.84375 3.07691,1.67683 6.05769,3.49545 8.94531,5.43945 a 177.11015,49.49642 0 0 1 96.72657,-8.18945 177.11015,49.49642 0 0 1 77.08203,5.00976 c 0.69314,-6.11535 1.08898,-12.29213 1.34375,-18.48047 a 282.65265,85.123157 0 0 0 -78.42578,-3.48632 z M 135.49219,422.7793 a 282.65265,85.123157 0 0 0 -41.822268,44.26562 282.65265,85.123157 0 0 0 282.652348,85.12305 282.65265,85.123157 0 0 0 273.84961,-64.18359 c -7.81178,2.70839 -15.74095,5.06993 -23.81055,6.95703 -20.34448,4.73204 -41.86963,6.51856 -62.36914,1.70703 -15.21268,-3.68598 -28.1884,-12.68222 -41.4668,-20.51172 A 177.11015,49.49642 0 0 1 376.32227,497.87109 177.11015,49.49642 0 0 1 206.95898,462.5957 c -3.27305,-0.0321 -6.54947,-0.17004 -9.82812,-0.47265 -22.90044,-1.29627 -44.46772,-14.1431 -57.41602,-32.92969 -1.70148,-1.95891 -3.03606,-4.14119 -4.22265,-6.41406 z"
       transform="matrix(0.26458333,0,0,0.26458333,-1.8710489,8.945016)"
       id="path899" />
    <path
       d="m 97.697395,28.945016 c -18.408571,3.3e-5 -33.331593,14.923238 -33.331401,33.331808 0.0055,6.871374 2.810306,13.017111 6.095754,19.187835 L 97.697395,128.23152 124.93304,81.464659 c 3.28545,-6.170724 6.09023,-12.316461 6.09576,-19.187835 1.9e-4,-18.40857 -14.92284,-33.331775 -33.331405,-33.331808 z m 0,14.582055 A 19.710455,19.710455 0 0 1 117.40792,63.237598 19.710455,19.710455 0 0 1 97.697395,82.948126 19.710455,19.710455 0 0 1 77.986867,63.237598 19.710455,19.710455 0 0 1 97.697395,43.527071 Z m 0,8.609144 A 11.101294,11.101294 0 0 0 86.596011,63.237598 11.101294,11.101294 0 0 0 97.697395,74.338981 11.101294,11.101294 0 0 0 108.79878,63.237598 11.101294,11.101294 0 0 0 97.697395,52.136215 Z"
       id="path901" />
  </g>
  <g
     style="fill:#dbe3eb"
     transform="matrix(0.99984882,0,0,1.0008867,-22.804578,-20.017734)"
     id="g929">
    <path
       d="m 192.09022,53.104055 q 0,1.612304 -0.90951,2.714733 -0.89572,1.08865 -2.48046,1.405598 v 0.110243 q 1.92925,0.275608 3.0179,1.584743 1.10243,1.309135 1.10243,3.321069 0,2.604491 -1.86035,4.175453 -1.84657,1.557182 -5.08496,1.557182 H 177.4968 V 48.212023 h 8.61274 q 2.68717,0 4.32703,1.350477 1.65365,1.336696 1.65365,3.541555 z m -10.63845,-1.529621 v 4.175453 h 4.25814 q 1.18511,0 1.83278,-0.537435 0.64768,-0.551215 0.64768,-1.543402 0,-1.005967 -0.68902,-1.543401 -0.68901,-0.551215 -1.98437,-0.551215 z m 7.41384,10.211255 q 0,-1.336696 -0.85438,-2.039495 -0.85439,-0.716579 -2.52181,-0.716579 h -4.03765 v 5.58105 h 4.45106 q 1.35048,0 2.14974,-0.75792 0.81304,-0.771701 0.81304,-2.067056 z"
       id="path905" />
    <path
       d="m 200.46868,48.212023 v 19.761053 h -3.95496 V 48.212023 Z"
       id="path907" />
    <path
       d="M 205.11267,67.973076 V 48.212023 h 8.58517 q 3.10058,0 4.85069,1.488281 1.75011,1.474499 1.75011,4.051429 0,2.425345 -1.59853,3.858504 -1.59852,1.433158 -4.40971,1.584742 l 6.42165,8.778097 h -4.85069 l -6.00824,-8.778097 h -0.78549 v 8.778097 z m 3.95496,-16.371081 v 4.492401 h 4.2857 q 1.41938,0 2.1773,-0.578776 0.75792,-0.592556 0.75792,-1.681205 0,-2.23242 -2.96278,-2.23242 z"
       id="path909" />
    <path
       d="m 239.85298,58.230353 q 0,9.742723 -9.86674,9.742723 h -6.24251 V 48.212023 h 6.71104 q 2.41157,0 4.21679,0.71658 1.81901,0.702799 2.93522,2.025714 1.12999,1.322916 1.68121,3.141925 0.56499,1.819009 0.56499,4.134111 z m -5.37434,4.726668 q 1.33669,-1.626084 1.33669,-4.864471 0,-3.238388 -1.33669,-4.864471 -1.3367,-1.626084 -4.43728,-1.626084 h -2.34266 v 12.98111 h 2.34266 q 3.10058,0 4.43728,-1.626084 z"
       id="path911" />
    <path
       d="m 263.33474,67.973076 -1.36426,-4.630205 h -7.33116 l -1.35047,4.630205 h -4.01009 l 6.32519,-19.761053 h 5.58105 l 6.32519,19.761053 z m -5.08496,-16.853394 -2.59071,8.833218 h 5.30544 l -2.60449,-8.833218 z"
       id="path913" />
    <path
       d="m 276.35718,48.212023 5.59483,13.835493 q 0.4272,1.212673 0.67524,2.149738 l 0.13781,-0.02756 q -0.0827,-1.185112 -0.0827,-2.25998 v -13.69769 h 3.81717 v 19.761053 h -6.10471 l -5.58105,-13.835493 q -0.45475,-1.240233 -0.71658,-2.135957 h -0.11024 q 0.0551,0.537434 0.0551,2.287541 v 13.683909 h -3.77582 V 48.212023 Z"
       id="path915" />
    <path
       d="m 307.21144,58.230353 q 0,9.742723 -9.86675,9.742723 h -6.24251 V 48.212023 h 6.71104 q 2.41157,0 4.2168,0.71658 1.819,0.702799 2.93521,2.025714 1.13,1.322916 1.68121,3.141925 0.565,1.819009 0.565,4.134111 z m -5.37435,4.726668 q 1.3367,-1.626084 1.3367,-4.864471 0,-3.238388 -1.3367,-4.864471 -1.3367,-1.626084 -4.43728,-1.626084 h -2.34266 v 12.98111 h 2.34266 q 3.10058,0 4.43728,-1.626084 z"
       id="path917" />
    <path
       d="M 318.49757,67.973076 V 48.212023 h 8.37846 q 3.27973,0 5.07118,1.488281 1.79145,1.48828 1.79145,4.244354 0,2.797415 -1.79145,4.478621 -1.79145,1.681205 -4.78179,1.681205 h -4.71289 v 7.868592 z m 3.95496,-16.371081 v 5.1952 h 4.2857 q 1.41938,0 2.21864,-0.689019 0.79926,-0.689018 0.79926,-1.901691 0,-1.240233 -0.81304,-1.915472 -0.79926,-0.689018 -2.23242,-0.689018 z"
       id="path919" />
    <path
       d="m 337.01838,48.212023 h 3.95497 v 16.371082 h 8.26822 v 3.389971 h -12.22319 z"
       id="path921" />
    <path
       d="m 364.42754,67.973076 -1.36426,-4.630205 h -7.33115 l -1.35048,4.630205 h -4.01009 l 6.32519,-19.761053 h 5.58105 l 6.32519,19.761053 z m -5.08496,-16.853394 -2.59071,8.833218 h 5.30545 l -2.60449,-8.833218 z"
       id="path923" />
    <path
       d="m 377.44999,48.212023 5.59483,13.835493 q 0.42719,1.212673 0.67524,2.149738 l 0.1378,-0.02756 q -0.0827,-1.185112 -0.0827,-2.25998 v -13.69769 h 3.81716 v 19.761053 h -6.1047 l -5.58105,-13.835493 q -0.45476,-1.240233 -0.71658,-2.135957 h -0.11025 q 0.0551,0.537434 0.0551,2.287541 v 13.683909 h -3.77582 V 48.212023 Z"
       id="path925" />
    <path
       d="m 405.90645,48.212023 v 3.417533 h -5.66373 v 16.34352 h -3.95496 v -16.34352 h -5.70508 v -3.417533 z"
       id="path927" />
  </g>
  <g
     style="fill:#dbe3eb"
     transform="matrix(0.99984882,0,0,1.0008867,-22.804578,-20.017734)"
     id="g941">
    <path
       d="m 265.89137,121.66803 -2.72852,-9.26041 h -14.66231 l -2.70096,9.26041 h -8.02017 l 12.65038,-39.522105 h 11.1621 l 12.65038,39.522105 z m -10.16992,-33.706788 -5.18142,17.666438 h 10.61089 l -5.20898,-17.666438 z"
       id="path931" />
    <path
       d="m 303.4291,82.145925 v 6.835064 H 292.10163 V 121.66803 H 284.1917 V 88.980989 h -11.41015 v -6.835064 z"
       id="path933" />
    <path
       d="m 309.52002,82.145925 h 7.90993 v 32.742165 h 16.53645 v 6.77994 h -24.44638 z"
       id="path935" />
    <path
       d="m 364.33834,121.66803 -2.72851,-9.26041 h -14.66232 l -2.70095,9.26041 h -8.02018 l 12.65038,-39.522105 h 11.16211 l 12.65038,39.522105 z m -10.16991,-33.706788 -5.18142,17.666438 h 10.61088 l -5.20898,-17.666438 z"
       id="path937" />
    <path
       d="m 391.34786,122.52241 q -6.44921,0 -10.63845,-3.30729 -4.16167,-3.30729 -5.56727,-9.45333 l 7.22092,-2.09462 q 2.39778,8.40603 9.20529,8.40603 2.89388,0 4.65776,-1.4056 1.79145,-1.43316 1.79145,-3.77582 0,-1.26779 -0.68902,-2.23242 -0.68902,-0.99219 -1.87413,-1.65365 -1.15755,-0.68901 -2.70095,-1.26779 -1.51584,-0.57878 -3.19705,-1.12999 -1.6812,-0.57878 -3.36241,-1.21267 -1.65364,-0.6339 -3.19704,-1.5434 -1.51584,-0.93707 -2.70096,-2.06706 -1.15755,-1.157551 -1.84657,-2.893878 -0.68901,-1.736327 -0.68901,-3.886064 0,-5.374345 3.66557,-8.543831 3.7207,-3.141924 9.86675,-3.141924 5.40191,0 9.06748,2.480466 3.69314,2.480467 5.37435,7.331158 l -7.05555,2.700953 q -1.37804,-3.197046 -3.19705,-4.602644 -1.81901,-1.433159 -4.51996,-1.433159 -2.42534,0 -3.83094,1.047308 -1.37804,1.047309 -1.37804,2.866318 0,1.267794 0.68902,2.259981 0.68902,0.964625 1.84657,1.653644 1.18511,0.689019 2.70095,1.267794 1.51584,0.578776 3.19705,1.157551 1.6812,0.551215 3.36241,1.185112 1.6812,0.633897 3.19704,1.543405 1.51585,0.9095 2.6734,2.06705 1.18511,1.12999 1.87413,2.86632 0.68902,1.70877 0.68902,3.83094 0,6.00824 -3.96875,9.4809 -3.99631,3.50021 -10.66601,3.50021 z"
       id="path939" />
  </g>
  <g
     transform="matrix(0.99984882,0,0,1.0008867,-22.804578,-20.017734)"
     id="g946">
    <g
       transform="translate(16.31128,-80.737004)"
       id="g944">
      <path
         style="fill:#cfbba7"
         d="m 28.016291,178.32041 c -2.873311,-5.24485 -10.405454,-5.78791 -14.755442,-2.26986 -1.578897,1.2769 -1.929398,3.14395 -3.197866,4.51445 -1.0073949,1.08844 -2.6938149,1.22071 -3.5662369,2.56228 4.2368809,-0.25149 9.2328079,0.43442 12.2774229,3.68242 1.204204,1.28457 1.728659,3.25028 2.624941,4.75971 1.511899,2.54598 3.554427,4.81594 6.022946,6.46142 6.688482,4.4583 14.625606,2.84271 22.054546,2.08071 l -0.008,-0.1256 -5.10593,-1.08327 -0.007,-0.12561 c 1.65139,0.0322 3.26435,-0.29433 4.89896,-0.27961 3.72915,0.0338 7.52406,0.58528 11.06952,1.75187 2.87789,0.94697 5.24376,2.59361 7.92094,3.91538 -3.24586,-6.66235 -8.55828,-12.80899 -15.3197,-16.01834 -1.80289,-0.85564 -3.90453,-1.82866 -5.91689,-2.00487 2.85302,-6.22436 6.43959,-12.52936 6.01806,-19.64149 -1.02629,0.88613 -1.79138,2.22511 -2.61075,3.30602 -1.45064,1.91385 -2.95674,3.76834 -4.55104,5.56392 -1.03101,1.16118 -2.25008,2.78915 -3.8476,3.1274 5.12026,-7.52728 6.16446,-17.1759 5.63773,-26.04697 -2.54049,1.25634 -4.70077,4.35628 -6.5499,6.43884 -5.279556,5.94609 -9.773572,12.21156 -13.088801,19.43111 z"
         id="path9278-3-5" />
    </g>
  </g>
  <g
     transform="matrix(0.99984882,0,0,1.0008867,-22.804578,-20.017734)"
     id="g950">
    <path
       style="fill:#aacfa7"
       d="m 134.33785,112.46634 0.0985,0.16287 c 2.37459,-0.84952 4.99921,-1.08436 7.48272,-1.33992 9.21777,-0.94832 20.72189,0.99182 27.58392,8.08095 l -0.15612,0.10272 c -3.72558,-3.46076 -9.85239,-5.18529 -14.6414,-6.01378 -13.35494,-2.31068 -26.07718,1.37703 -37.05168,9.31035 l 0.0985,0.16291 c 5.44386,-2.13508 11.3262,-3.30686 16.9396,-1.13472 5.39659,2.0883 9.59689,6.3369 15.36608,7.63534 9.76668,2.19815 21.53123,-1.81585 30.35849,-6.09072 -8.19269,-13.30155 -25.02148,-26.751979 -40.05131,-16.42679 -2.21419,1.52112 -4.31717,3.43332 -6.02733,5.55079 m 3.75273,-35.425109 c -5.84946,3.85189 -12.02336,7.70257 -14.36991,14.95842 -1.40278,4.33725 -1.12655,8.968949 -1.47427,13.465019 -0.47793,6.18087 -2.26485,12.9457 -6.57049,17.48365 l 0.11613,0.19208 c 12.27301,-8.08174 18.02719,-21.09497 20.17408,-35.570839 1.42826,9.4712 -3.0501,19.890649 -8.97664,26.854819 1.99165,-0.1545 3.86544,-1.73906 5.50133,-2.81708 4.99773,-3.29368 8.27312,-8.91322 8.3168,-15.142909 0.0216,-3.16934 -0.7892,-6.28702 -1.21171,-9.40544 -0.44241,-3.26401 -0.62581,-6.85673 -1.5053,-10.01766"
       id="path948" />
  </g>
</svg>
