<?xml version="1.0" encoding="UTF-8" standalone="no"?>
<svg
   width="32"
   height="32"
   viewBox="0 0 8.4666669 8.466667"
   version="1.1"
   id="svg877"
   xmlns="http://www.w3.org/2000/svg"
   xmlns:svg="http://www.w3.org/2000/svg">
  <path
     style="fill:#3d5f7a;"
     d="M 4.1531264,0.00140902 C 2.4500608,7.8070263e-4 1.026706,1.7716819 1.4685385,3.4365623 1.9269899,4.7891321 2.8331468,5.9358796 3.4925135,7.1938447 3.7397667,7.618023 3.9868299,8.0423119 4.2337793,8.466667 5.109716,6.8903146 6.1197742,5.3810274 6.8994934,3.7557101 7.5886073,2.0813615 6.2005859,0.05106935 4.4082528,0.00634695 4.3233268,0.00660476 4.2379448,-0.00366195 4.1531264,0.00140902 Z" />
  <path
     style="fill:#ffffff;"
     d="m 4.2333339,0.73794824 c -1.1611759,2.3e-6 -2.10249,0.94132766 -2.1024777,2.10250326 3.16e-4,0.433432 0.1772683,0.821093 0.3845075,1.2103297 L 4.2333339,7.0007408 5.9513027,4.0507812 C 6.1585421,3.6615445 6.3354622,3.2738835 6.3358107,2.8404515 6.335823,1.6792759 5.3945087,0.73795054 4.2333339,0.73794824 Z m 0,0.91980666 A 1.2432957,1.2432957 0 0 1 5.4766337,2.9010553 1.2432957,1.2432957 0 0 1 4.2333339,4.1443554 1.2432957,1.2432957 0 0 1 2.9900334,2.9010553 1.2432957,1.2432957 0 0 1 4.2333339,1.6577549 Z m 0,0.5430473 A 0.70024722,0.70024722 0 0 0 3.5330806,2.9010553 0.70024722,0.70024722 0 0 0 4.2333339,3.6013079 0.70024722,0.70024722 0 0 0 4.9335864,2.9010553 0.70024722,0.70024722 0 0 0 4.2333339,2.2008022 Z" />
</svg>
